<?xml version="1.0" encoding="UTF-8" standalone="no"?>
<!DOCTYPE svg PUBLIC "-//W3C//DTD SVG 1.1//EN"
 "http://www.w3.org/Graphics/SVG/1.1/DTD/svg11.dtd">
<!-- Generated by graphviz version 2.40.1 (20161225.0304)
 -->
<!-- Title: dependencies Pages: 1 -->
<svg width="1495pt" height="284pt"
 viewBox="0.00 0.00 1495.00 284.00" xmlns="http://www.w3.org/2000/svg" xmlns:xlink="http://www.w3.org/1999/xlink">
<g id="graph0" class="graph" transform="scale(1 1) rotate(0) translate(4 280)">
<title>dependencies</title>
<polygon fill="#ffffff" stroke="transparent" points="-4,4 -4,-280 1491,-280 1491,4 -4,4"/>
<text text-anchor="start" x="722.5091" y="-42.4" font-family="sans-serif" font-weight="bold" font-size="14.00" fill="#000000">Legend</text>
<polygon fill="#ffffb3" stroke="transparent" points="509.5,-10 509.5,-30 529.5,-30 529.5,-10 509.5,-10"/>
<text text-anchor="start" x="533.129" y="-15.4" font-family="sans-serif" font-size="14.00" fill="#000000"> &#160;Declarations</text>
<polygon fill="#8dd3c7" stroke="transparent" points="622.5,-10 622.5,-30 642.5,-30 642.5,-10 622.5,-10"/>
<text text-anchor="start" x="646.2251" y="-15.4" font-family="sans-serif" font-size="14.00" fill="#000000"> &#160;Module</text>
<polygon fill="#80b1d3" stroke="transparent" points="708.5,-10 708.5,-30 728.5,-30 728.5,-10 708.5,-10"/>
<text text-anchor="start" x="732.2812" y="-15.4" font-family="sans-serif" font-size="14.00" fill="#000000"> &#160;Bootstrap</text>
<polygon fill="#fdb462" stroke="transparent" points="805.5,-10 805.5,-30 825.5,-30 825.5,-10 805.5,-10"/>
<text text-anchor="start" x="829.1732" y="-15.4" font-family="sans-serif" font-size="14.00" fill="#000000"> &#160;Providers</text>
<polygon fill="#fb8072" stroke="transparent" points="901.5,-10 901.5,-30 921.5,-30 921.5,-10 901.5,-10"/>
<text text-anchor="start" x="925.2258" y="-15.4" font-family="sans-serif" font-size="14.00" fill="#000000"> &#160;Exports</text>
<g id="clust1" class="cluster">
<title>cluster_AppModule</title>
<polygon fill="none" stroke="#000000" stroke-dasharray="1,5" points="8,-70 8,-268 1479,-268 1479,-70 8,-70"/>
</g>
<g id="clust2" class="cluster">
<title>cluster_AppModule_declarations</title>
<polygon fill="none" stroke="#000000" points="168,-78 168,-130 1471,-130 1471,-78 168,-78"/>
</g>
<g id="clust12" class="cluster">
<title>cluster_AppModule_imports</title>
<polygon fill="none" stroke="#000000" points="16,-78 16,-130 160,-130 160,-78 16,-78"/>
</g>
<g id="clust14" class="cluster">
<title>cluster_AppModule_bootstrap</title>
<polygon fill="none" stroke="#000000" points="696,-208 696,-260 820,-260 820,-208 696,-208"/>
</g>
<!-- AboutComponent -->
<g id="node1" class="node">
<title>AboutComponent</title>
<polygon fill="#ffffb3" stroke="#000000" points="1463.3301,-122 1346.6699,-122 1346.6699,-86 1463.3301,-86 1463.3301,-122"/>
<text text-anchor="middle" x="1405" y="-99.8" font-family="Times,serif" font-size="14.00" fill="#000000">AboutComponent</text>
</g>
<!-- AppModule -->
<g id="node10" class="node">
<title>AppModule</title>
<polygon fill="#8dd3c7" stroke="#000000" points="799.6571,-187 796.6571,-191 775.6571,-191 772.6571,-187 716.3429,-187 716.3429,-151 799.6571,-151 799.6571,-187"/>
<text text-anchor="middle" x="758" y="-164.8" font-family="Times,serif" font-size="14.00" fill="#000000">AppModule</text>
</g>
<!-- AboutComponent&#45;&gt;AppModule -->
<g id="edge1" class="edge">
<title>AboutComponent&#45;&gt;AppModule</title>
<path fill="none" stroke="#000000" d="M1405,-122.0109C1405,-144.4852 1405,-180 1405,-180 1405,-180 809.953,-180 809.953,-180"/>
<polygon fill="#000000" stroke="#000000" points="809.953,-176.5001 799.953,-180 809.9529,-183.5001 809.953,-176.5001"/>
</g>
<!-- AppComponent -->
<g id="node2" class="node">
<title>AppComponent</title>
<polygon fill="#ffffb3" stroke="#000000" points="1328.9399,-122 1223.0601,-122 1223.0601,-86 1328.9399,-86 1328.9399,-122"/>
<text text-anchor="middle" x="1276" y="-99.8" font-family="Times,serif" font-size="14.00" fill="#000000">AppComponent</text>
</g>
<!-- AppComponent&#45;&gt;AppModule -->
<g id="edge2" class="edge">
<title>AppComponent&#45;&gt;AppModule</title>
<path fill="none" stroke="#000000" d="M1276,-122.1289C1276,-142.5724 1276,-173 1276,-173 1276,-173 809.9513,-173 809.9513,-173"/>
<polygon fill="#000000" stroke="#000000" points="809.9514,-169.5001 799.9513,-173 809.9513,-176.5001 809.9514,-169.5001"/>
</g>
<!-- ChatButtonComponent -->
<g id="node3" class="node">
<title>ChatButtonComponent</title>
<polygon fill="#ffffb3" stroke="#000000" points="1204.892,-122 1059.108,-122 1059.108,-86 1204.892,-86 1204.892,-122"/>
<text text-anchor="middle" x="1132" y="-99.8" font-family="Times,serif" font-size="14.00" fill="#000000">ChatButtonComponent</text>
</g>
<!-- ChatButtonComponent&#45;&gt;AppModule -->
<g id="edge3" class="edge">
<title>ChatButtonComponent&#45;&gt;AppModule</title>
<path fill="none" stroke="#000000" d="M1132,-122.2667C1132,-140.5552 1132,-166 1132,-166 1132,-166 809.8139,-166 809.8139,-166"/>
<polygon fill="#000000" stroke="#000000" points="809.8139,-162.5001 799.8139,-166 809.8139,-169.5001 809.8139,-162.5001"/>
</g>
<!-- FriendCardComponent -->
<g id="node4" class="node">
<title>FriendCardComponent</title>
<polygon fill="#ffffb3" stroke="#000000" points="1041.5926,-122 896.4074,-122 896.4074,-86 1041.5926,-86 1041.5926,-122"/>
<text text-anchor="middle" x="969" y="-99.8" font-family="Times,serif" font-size="14.00" fill="#000000">FriendCardComponent</text>
</g>
<!-- FriendCardComponent&#45;&gt;AppModule -->
<g id="edge4" class="edge">
<title>FriendCardComponent&#45;&gt;AppModule</title>
<path fill="none" stroke="#000000" d="M969,-122.0091C969,-138.0494 969,-159 969,-159 969,-159 809.6868,-159 809.6868,-159"/>
<polygon fill="#000000" stroke="#000000" points="809.6868,-155.5001 799.6868,-159 809.6868,-162.5001 809.6868,-155.5001"/>
</g>
<!-- NavComponent -->
<g id="node5" class="node">
<title>NavComponent</title>
<polygon fill="#ffffb3" stroke="#000000" points="878.1542,-122 773.8458,-122 773.8458,-86 878.1542,-86 878.1542,-122"/>
<text text-anchor="middle" x="826" y="-99.8" font-family="Times,serif" font-size="14.00" fill="#000000">NavComponent</text>
</g>
<!-- NavComponent&#45;&gt;AppModule -->
<g id="edge5" class="edge">
<title>NavComponent&#45;&gt;AppModule</title>
<path fill="none" stroke="#000000" d="M786.7507,-122.1061C786.7507,-122.1061 786.7507,-140.991 786.7507,-140.991"/>
<polygon fill="#000000" stroke="#000000" points="783.2508,-140.9909 786.7507,-150.991 790.2508,-140.991 783.2508,-140.9909"/>
</g>
<!-- NetworkComponent -->
<g id="node6" class="node">
<title>NetworkComponent</title>
<polygon fill="#ffffb3" stroke="#000000" points="756.3118,-122 625.6882,-122 625.6882,-86 756.3118,-86 756.3118,-122"/>
<text text-anchor="middle" x="691" y="-99.8" font-family="Times,serif" font-size="14.00" fill="#000000">NetworkComponent</text>
</g>
<!-- NetworkComponent&#45;&gt;AppModule -->
<g id="edge6" class="edge">
<title>NetworkComponent&#45;&gt;AppModule</title>
<path fill="none" stroke="#000000" d="M736.1637,-122.1061C736.1637,-122.1061 736.1637,-140.991 736.1637,-140.991"/>
<polygon fill="#000000" stroke="#000000" points="732.6638,-140.9909 736.1637,-150.991 739.6638,-140.991 732.6638,-140.9909"/>
</g>
<!-- ProfileComponent -->
<g id="node7" class="node">
<title>ProfileComponent</title>
<polygon fill="#ffffb3" stroke="#000000" points="607.9328,-122 488.0672,-122 488.0672,-86 607.9328,-86 607.9328,-122"/>
<text text-anchor="middle" x="548" y="-99.8" font-family="Times,serif" font-size="14.00" fill="#000000">ProfileComponent</text>
</g>
<!-- ProfileComponent&#45;&gt;AppModule -->
<g id="edge7" class="edge">
<title>ProfileComponent&#45;&gt;AppModule</title>
<path fill="none" stroke="#000000" d="M548,-122.0091C548,-138.0494 548,-159 548,-159 548,-159 706.2597,-159 706.2597,-159"/>
<polygon fill="#000000" stroke="#000000" points="706.2597,-162.5001 716.2597,-159 706.2596,-155.5001 706.2597,-162.5001"/>
</g>
<!-- ReleaseRubricComponent -->
<g id="node8" class="node">
<title>ReleaseRubricComponent</title>
<polygon fill="#ffffb3" stroke="#000000" points="470.465,-122 307.535,-122 307.535,-86 470.465,-86 470.465,-122"/>
<text text-anchor="middle" x="389" y="-99.8" font-family="Times,serif" font-size="14.00" fill="#000000">ReleaseRubricComponent</text>
</g>
<!-- ReleaseRubricComponent&#45;&gt;AppModule -->
<g id="edge8" class="edge">
<title>ReleaseRubricComponent&#45;&gt;AppModule</title>
<path fill="none" stroke="#000000" d="M389,-122.2667C389,-140.5552 389,-166 389,-166 389,-166 706.0303,-166 706.0303,-166"/>
<polygon fill="#000000" stroke="#000000" points="706.0303,-169.5001 716.0303,-166 706.0302,-162.5001 706.0303,-169.5001"/>
</g>
<!-- SetupComponent -->
<g id="node9" class="node">
<title>SetupComponent</title>
<polygon fill="#ffffb3" stroke="#000000" points="289.7204,-122 176.2796,-122 176.2796,-86 289.7204,-86 289.7204,-122"/>
<text text-anchor="middle" x="233" y="-99.8" font-family="Times,serif" font-size="14.00" fill="#000000">SetupComponent</text>
</g>
<!-- SetupComponent&#45;&gt;AppModule -->
<g id="edge9" class="edge">
<title>SetupComponent&#45;&gt;AppModule</title>
<path fill="none" stroke="#000000" d="M233,-122.1289C233,-142.5724 233,-173 233,-173 233,-173 705.9245,-173 705.9245,-173"/>
<polygon fill="#000000" stroke="#000000" points="705.9245,-176.5001 715.9245,-173 705.9245,-169.5001 705.9245,-176.5001"/>
</g>
<!-- AppComponent  -->
<g id="node12" class="node">
<title>AppComponent </title>
<polygon fill="#80b1d3" stroke="#000000" points="812.439,-252 703.561,-252 703.561,-216 812.439,-216 812.439,-252"/>
<text text-anchor="middle" x="758" y="-229.8" font-family="Times,serif" font-size="14.00" fill="#000000">AppComponent </text>
</g>
<!-- AppModule&#45;&gt;AppComponent  -->
<g id="edge11" class="edge">
<title>AppModule&#45;&gt;AppComponent </title>
<path fill="none" stroke="#000000" stroke-dasharray="1,5" d="M758,-187.1061C758,-187.1061 758,-205.991 758,-205.991"/>
<polygon fill="#000000" stroke="#000000" points="754.5001,-205.9909 758,-215.991 761.5001,-205.991 754.5001,-205.9909"/>
</g>
<!-- AppRoutingModule -->
<g id="node11" class="node">
<title>AppRoutingModule</title>
<polygon fill="#8dd3c7" stroke="#000000" points="152.2744,-122 149.2744,-126 128.2744,-126 125.2744,-122 23.7256,-122 23.7256,-86 152.2744,-86 152.2744,-122"/>
<text text-anchor="middle" x="88" y="-99.8" font-family="Times,serif" font-size="14.00" fill="#000000">AppRoutingModule</text>
</g>
<!-- AppRoutingModule&#45;&gt;AppModule -->
<g id="edge10" class="edge">
<title>AppRoutingModule&#45;&gt;AppModule</title>
<path fill="none" stroke="#000000" d="M88,-122.0109C88,-144.4852 88,-180 88,-180 88,-180 706.3416,-180 706.3416,-180"/>
<polygon fill="#000000" stroke="#000000" points="706.3417,-183.5001 716.3416,-180 706.3416,-176.5001 706.3417,-183.5001"/>
</g>
</g>
</svg>
