<?xml version="1.0" encoding="UTF-8" standalone="no"?>
<!DOCTYPE svg PUBLIC "-//W3C//DTD SVG 1.1//EN"
 "http://www.w3.org/Graphics/SVG/1.1/DTD/svg11.dtd">
<!-- Generated by graphviz version 2.40.1 (20161225.0304)
 -->
<!-- Title: dependencies Pages: 1 -->
<svg width="1168pt" height="284pt"
 viewBox="0.00 0.00 1168.00 284.00" xmlns="http://www.w3.org/2000/svg" xmlns:xlink="http://www.w3.org/1999/xlink">
<g id="graph0" class="graph" transform="scale(1 1) rotate(0) translate(4 280)">
<title>dependencies</title>
<polygon fill="#ffffff" stroke="transparent" points="-4,4 -4,-280 1164,-280 1164,4 -4,4"/>
<text text-anchor="start" x="559.0091" y="-42.4" font-family="sans-serif" font-weight="bold" font-size="14.00" fill="#000000">Legend</text>
<polygon fill="#ffffb3" stroke="transparent" points="346,-10 346,-30 366,-30 366,-10 346,-10"/>
<text text-anchor="start" x="369.629" y="-15.4" font-family="sans-serif" font-size="14.00" fill="#000000"> &#160;Declarations</text>
<polygon fill="#8dd3c7" stroke="transparent" points="459,-10 459,-30 479,-30 479,-10 459,-10"/>
<text text-anchor="start" x="482.7251" y="-15.4" font-family="sans-serif" font-size="14.00" fill="#000000"> &#160;Module</text>
<polygon fill="#80b1d3" stroke="transparent" points="545,-10 545,-30 565,-30 565,-10 545,-10"/>
<text text-anchor="start" x="568.7812" y="-15.4" font-family="sans-serif" font-size="14.00" fill="#000000"> &#160;Bootstrap</text>
<polygon fill="#fdb462" stroke="transparent" points="642,-10 642,-30 662,-30 662,-10 642,-10"/>
<text text-anchor="start" x="665.6732" y="-15.4" font-family="sans-serif" font-size="14.00" fill="#000000"> &#160;Providers</text>
<polygon fill="#fb8072" stroke="transparent" points="738,-10 738,-30 758,-30 758,-10 738,-10"/>
<text text-anchor="start" x="761.7258" y="-15.4" font-family="sans-serif" font-size="14.00" fill="#000000"> &#160;Exports</text>
<g id="clust1" class="cluster">
<title>cluster_AppModule</title>
<polygon fill="none" stroke="#000000" stroke-dasharray="1,5" points="8,-70 8,-268 1152,-268 1152,-70 8,-70"/>
</g>
<g id="clust2" class="cluster">
<title>cluster_AppModule_declarations</title>
<polygon fill="none" stroke="#000000" points="168,-78 168,-130 1144,-130 1144,-78 168,-78"/>
</g>
<g id="clust10" class="cluster">
<title>cluster_AppModule_imports</title>
<polygon fill="none" stroke="#000000" points="16,-78 16,-130 160,-130 160,-78 16,-78"/>
</g>
<g id="clust12" class="cluster">
<title>cluster_AppModule_bootstrap</title>
<polygon fill="none" stroke="#000000" points="557,-208 557,-260 681,-260 681,-208 557,-208"/>
</g>
<!-- AboutComponent -->
<g id="node1" class="node">
<title>AboutComponent</title>
<polygon fill="#ffffb3" stroke="#000000" points="1136.3301,-122 1019.6699,-122 1019.6699,-86 1136.3301,-86 1136.3301,-122"/>
<text text-anchor="middle" x="1078" y="-99.8" font-family="Times,serif" font-size="14.00" fill="#000000">AboutComponent</text>
</g>
<!-- AppModule -->
<g id="node8" class="node">
<title>AppModule</title>
<polygon fill="#8dd3c7" stroke="#000000" points="660.6571,-187 657.6571,-191 636.6571,-191 633.6571,-187 577.3429,-187 577.3429,-151 660.6571,-151 660.6571,-187"/>
<text text-anchor="middle" x="619" y="-164.8" font-family="Times,serif" font-size="14.00" fill="#000000">AppModule</text>
</g>
<!-- AboutComponent&#45;&gt;AppModule -->
<g id="edge1" class="edge">
<title>AboutComponent&#45;&gt;AppModule</title>
<path fill="none" stroke="#000000" d="M1078,-122.2921C1078,-144.2057 1078,-178 1078,-178 1078,-178 670.95,-178 670.95,-178"/>
<polygon fill="#000000" stroke="#000000" points="670.95,-174.5001 660.95,-178 670.95,-181.5001 670.95,-174.5001"/>
</g>
<!-- AppComponent -->
<g id="node2" class="node">
<title>AppComponent</title>
<polygon fill="#ffffb3" stroke="#000000" points="1001.9399,-122 896.0601,-122 896.0601,-86 1001.9399,-86 1001.9399,-122"/>
<text text-anchor="middle" x="949" y="-99.8" font-family="Times,serif" font-size="14.00" fill="#000000">AppComponent</text>
</g>
<!-- AppComponent&#45;&gt;AppModule -->
<g id="edge2" class="edge">
<title>AppComponent&#45;&gt;AppModule</title>
<path fill="none" stroke="#000000" d="M949,-122.1061C949,-141.3391 949,-169 949,-169 949,-169 670.7947,-169 670.7947,-169"/>
<polygon fill="#000000" stroke="#000000" points="670.7948,-165.5001 660.7947,-169 670.7947,-172.5001 670.7948,-165.5001"/>
</g>
<!-- NavComponent -->
<g id="node3" class="node">
<title>NavComponent</title>
<polygon fill="#ffffb3" stroke="#000000" points="878.1542,-122 773.8458,-122 773.8458,-86 878.1542,-86 878.1542,-122"/>
<text text-anchor="middle" x="826" y="-99.8" font-family="Times,serif" font-size="14.00" fill="#000000">NavComponent</text>
</g>
<!-- NavComponent&#45;&gt;AppModule -->
<g id="edge3" class="edge">
<title>NavComponent&#45;&gt;AppModule</title>
<path fill="none" stroke="#000000" d="M826,-122.027C826,-138.3976 826,-160 826,-160 826,-160 670.8895,-160 670.8895,-160"/>
<polygon fill="#000000" stroke="#000000" points="670.8896,-156.5001 660.8895,-160 670.8895,-163.5001 670.8896,-156.5001"/>
</g>
<!-- NetworkComponent -->
<g id="node4" class="node">
<title>NetworkComponent</title>
<polygon fill="#ffffb3" stroke="#000000" points="756.3118,-122 625.6882,-122 625.6882,-86 756.3118,-86 756.3118,-122"/>
<text text-anchor="middle" x="691" y="-99.8" font-family="Times,serif" font-size="14.00" fill="#000000">NetworkComponent</text>
</g>
<!-- NetworkComponent&#45;&gt;AppModule -->
<g id="edge4" class="edge">
<title>NetworkComponent&#45;&gt;AppModule</title>
<path fill="none" stroke="#000000" d="M643.3363,-122.1061C643.3363,-122.1061 643.3363,-140.991 643.3363,-140.991"/>
<polygon fill="#000000" stroke="#000000" points="639.8363,-140.9909 643.3363,-150.991 646.8363,-140.991 639.8363,-140.9909"/>
</g>
<!-- ProfileComponent -->
<g id="node5" class="node">
<title>ProfileComponent</title>
<polygon fill="#ffffb3" stroke="#000000" points="607.9328,-122 488.0672,-122 488.0672,-86 607.9328,-86 607.9328,-122"/>
<text text-anchor="middle" x="548" y="-99.8" font-family="Times,serif" font-size="14.00" fill="#000000">ProfileComponent</text>
</g>
<!-- ProfileComponent&#45;&gt;AppModule -->
<g id="edge5" class="edge">
<title>ProfileComponent&#45;&gt;AppModule</title>
<path fill="none" stroke="#000000" d="M592.4439,-122.1061C592.4439,-122.1061 592.4439,-140.991 592.4439,-140.991"/>
<polygon fill="#000000" stroke="#000000" points="588.944,-140.9909 592.4439,-150.991 595.944,-140.991 588.944,-140.9909"/>
</g>
<!-- ReleaseRubricComponent -->
<g id="node6" class="node">
<title>ReleaseRubricComponent</title>
<polygon fill="#ffffb3" stroke="#000000" points="470.465,-122 307.535,-122 307.535,-86 470.465,-86 470.465,-122"/>
<text text-anchor="middle" x="389" y="-99.8" font-family="Times,serif" font-size="14.00" fill="#000000">ReleaseRubricComponent</text>
</g>
<!-- ReleaseRubricComponent&#45;&gt;AppModule -->
<g id="edge6" class="edge">
<title>ReleaseRubricComponent&#45;&gt;AppModule</title>
<path fill="none" stroke="#000000" d="M389,-122.027C389,-138.3976 389,-160 389,-160 389,-160 567.0819,-160 567.0819,-160"/>
<polygon fill="#000000" stroke="#000000" points="567.0819,-163.5001 577.0819,-160 567.0819,-156.5001 567.0819,-163.5001"/>
</g>
<!-- SetupComponent -->
<g id="node7" class="node">
<title>SetupComponent</title>
<polygon fill="#ffffb3" stroke="#000000" points="289.7204,-122 176.2796,-122 176.2796,-86 289.7204,-86 289.7204,-122"/>
<text text-anchor="middle" x="233" y="-99.8" font-family="Times,serif" font-size="14.00" fill="#000000">SetupComponent</text>
</g>
<!-- SetupComponent&#45;&gt;AppModule -->
<g id="edge7" class="edge">
<title>SetupComponent&#45;&gt;AppModule</title>
<path fill="none" stroke="#000000" d="M233,-122.1061C233,-141.3391 233,-169 233,-169 233,-169 567.3245,-169 567.3245,-169"/>
<polygon fill="#000000" stroke="#000000" points="567.3245,-172.5001 577.3245,-169 567.3245,-165.5001 567.3245,-172.5001"/>
</g>
<!-- AppComponent  -->
<g id="node10" class="node">
<title>AppComponent </title>
<polygon fill="#80b1d3" stroke="#000000" points="673.439,-252 564.561,-252 564.561,-216 673.439,-216 673.439,-252"/>
<text text-anchor="middle" x="619" y="-229.8" font-family="Times,serif" font-size="14.00" fill="#000000">AppComponent </text>
</g>
<!-- AppModule&#45;&gt;AppComponent  -->
<g id="edge9" class="edge">
<title>AppModule&#45;&gt;AppComponent </title>
<path fill="none" stroke="#000000" stroke-dasharray="1,5" d="M619,-187.1061C619,-187.1061 619,-205.991 619,-205.991"/>
<polygon fill="#000000" stroke="#000000" points="615.5001,-205.9909 619,-215.991 622.5001,-205.991 615.5001,-205.9909"/>
</g>
<!-- AppRoutingModule -->
<g id="node9" class="node">
<title>AppRoutingModule</title>
<polygon fill="#8dd3c7" stroke="#000000" points="152.2744,-122 149.2744,-126 128.2744,-126 125.2744,-122 23.7256,-122 23.7256,-86 152.2744,-86 152.2744,-122"/>
<text text-anchor="middle" x="88" y="-99.8" font-family="Times,serif" font-size="14.00" fill="#000000">AppRoutingModule</text>
</g>
<!-- AppRoutingModule&#45;&gt;AppModule -->
<g id="edge8" class="edge">
<title>AppRoutingModule&#45;&gt;AppModule</title>
<path fill="none" stroke="#000000" d="M88,-122.2921C88,-144.2057 88,-178 88,-178 88,-178 567.3333,-178 567.3333,-178"/>
<polygon fill="#000000" stroke="#000000" points="567.3334,-181.5001 577.3333,-178 567.3333,-174.5001 567.3334,-181.5001"/>
</g>
</g>
</svg>
