<?xml version="1.0" encoding="utf-8"?>
<!-- Generator: Adobe Illustrator 16.0.0, SVG Export Plug-In . SVG Version: 6.00 Build 0)  -->
<!DOCTYPE svg PUBLIC "-//W3C//DTD SVG 1.1//EN" "http://www.w3.org/Graphics/SVG/1.1/DTD/svg11.dtd">
<svg version="1.1" id="Artwork" xmlns="http://www.w3.org/2000/svg" xmlns:xlink="http://www.w3.org/1999/xlink" x="0px" y="0px"
	 width="340px" height="340px" viewBox="0 0 340 340" enable-background="new 0 0 340 340" xml:space="preserve">
<g>
	<g>
		<g>
			<line fill="#FFFFFF" x1="100.561" y1="35.348" x2="101" y2="305.126"/>
		</g>
		<g>
			<polygon fill="#CCCCCC" points="111,305 91,305 91,35.379 111,35.315 			"/>
		</g>
	</g>
	<g>
		<g>
			<line fill="#FFFFFF" x1="238.56" y1="34.906" x2="239" y2="305.126"/>
		</g>
		<g>
			<polygon fill="#CCCCCC" points="249,305 229,305 229,34.938 249,34.874 			"/>
		</g>
	</g>
	<g>
		<path fill="#FFFFFF" d="M164.626,276.828c-4.114-0.184-8.078-0.561-11.781-1.119l0.746-4.943c3.53,0.532,7.318,0.892,11.26,1.068
			L164.626,276.828z M176.424,276.826l-0.227-4.994c3.948-0.179,7.736-0.54,11.258-1.073l0.748,4.943
			C184.51,276.262,180.546,276.64,176.424,276.826z M141.144,272.989c-6.785-2.333-10.253-5.398-10.31-9.111l5-0.076
			c0.011,0.722,1.475,2.581,6.935,4.459L141.144,272.989z M199.904,272.972l-1.631-4.727c5.058-1.745,6.894-3.619,6.894-4.453
			l4.997-0.172l0.002,0.086C210.167,267.533,206.714,270.621,199.904,272.972z M142.685,259.353l-1.637-4.725
			c3.281-1.137,7.218-2.06,11.7-2.74l0.752,4.943C149.317,257.467,145.679,258.314,142.685,259.353z M198.19,259.31
			c-3.006-1.029-6.648-1.869-10.827-2.499l0.744-4.943c4.476,0.673,8.413,1.586,11.702,2.712L198.19,259.31z"/>
	</g>
	<g>
		<polygon fill="#EAEAEA" points="170.5,263.614 118.839,163.093 118.887,119.546 170.5,220 170.84,220 222.453,119.546 
			222.501,163.027 170.84,263.581 		"/>
	</g>
	<g>
		<g>
			<path fill="none" stroke="#FFFFFF" stroke-width="5" stroke-miterlimit="10" d="M121.667,115.126c0-2.041,0.103-4.04,0.304-5.991
				"/>
			<path fill="none" stroke="#FFFFFF" stroke-width="5" stroke-miterlimit="10" stroke-dasharray="12.9849,12.9849" d="
				M124.856,96.507c6.764-18.383,23.738-30.214,45.644-30.214c24.283,0,42.507,14.54,47.479,36.425"/>
			<path fill="none" stroke="#FFFFFF" stroke-width="5" stroke-miterlimit="10" d="M219.029,109.135
				c0.201,1.951,0.304,3.95,0.304,5.991"/>
		</g>
	</g>
	<g>
		<circle fill="#F2F2F2" cx="170.5" cy="120.126" r="18.25"/>
	</g>
</g>
</svg>
