<?xml version="1.0" encoding="utf-8"?>
<!-- Generator: Adobe Illustrator 16.0.0, SVG Export Plug-In . SVG Version: 6.00 Build 0)  -->
<!DOCTYPE svg PUBLIC "-//W3C//DTD SVG 1.1//EN" "http://www.w3.org/Graphics/SVG/1.1/DTD/svg11.dtd">
<svg version="1.1" xmlns="http://www.w3.org/2000/svg" xmlns:xlink="http://www.w3.org/1999/xlink" x="0px" y="0px" width="340px"
	 height="340px" viewBox="0 0 340 340" enable-background="new 0 0 340 340" xml:space="preserve">
<g id="globe">
	<g>
		<path fill-rule="evenodd" clip-rule="evenodd" fill="#88C0D0" d="M269.854,97.608c-0.69,2.118-2.161,2.866-4.303,2.479
			c-0.896-0.161-1.878-0.28-2.121,0.907c-0.203,0.991,0.624,1.333,1.382,1.642c2.027,0.825,3.026,2.621,4.004,4.387
			c0.515,0.932,0.836,2.06-0.006,2.965c-0.871,0.935-2.159,0.678-2.928,0.071c-1.373-1.084-2.968-0.94-4.467-1.284
			c-1.732-0.398-2.799,0.533-2.282,2.134c1.107,3.434-0.568,7.027,0.977,10.478c0.583,1.301,0.837,2.27,2.35,2.668
			c3.05,0.803,3.748,3.214,1.483,5.413c-2.014,1.956-3.227,4.119-3.205,6.958c0.003,0.484-0.197,1.11-0.532,1.436
			c-3.63,3.532-5.424,8.422-9.036,11.998c-2.478,2.453-2.766,6.634-0.856,9.845c1.58,2.657,1.626,5.062-0.107,7.617
			c-0.859,1.267,0.104,6.728,1.046,8.165c3.261,4.974,7.578,8.973,11.771,13.099c0.918,0.902,1.903,1.258,3.093,1.04
			c4.567-0.837,9.321-0.462,13.748-2.3c2.031-0.844,3.798,0.433,5.303,1.604c1.384,1.077,1.056,2.669,0.499,4.14
			c-0.856,2.261-0.617,4.438,0.215,6.686c2.133,5.756,2.461,11.326-0.828,16.992c-2.54,4.376-3.265,9.447-3.588,14.496
			c-0.079,1.236-0.141,2.425-0.82,3.543c-13.898,22.854-33.098,39.794-57.349,50.923c-14.706,6.748-30.217,10.367-46.436,11.146
			c-5.124,0.246-10.188,0.093-15.277-0.189c-0.865-0.048-1.863,0.039-2.226-1.021c-0.395-1.157,0.512-1.734,1.203-2.408
			c1.004-0.978,2.645-0.856,3.515-1.653c2.631-2.411,5.536-3.702,9.107-3.521c0.303,0.016,0.672-0.243,0.928-0.468
			c5.295-4.645,11.917-7.604,16.573-13.064c0.606-0.711,0.948-1.471,1.037-2.364c0.209-2.119,1.438-3.365,3.42-3.862
			c2.298-0.576,4.51-1.499,6.912-1.672c2.315-0.167,3.658-1.509,4.895-3.47c3.117-4.947,5.954-9.921,6.714-15.875
			c0.204-1.595,1.794-2.556,3.104-3.461c2.091-1.445,3.237-3.42,3.499-5.935c0.385-3.699-0.362-3.669-3.606-5.364
			c-4.431-2.315-9.492-2.689-13.743-5.21c-3.023-1.792-6.251-2.764-9.709-3.136c-1.376-0.147-2.325-0.309-2.848-2.235
			c-1.811-6.674-5.288-9.087-12.272-9.16c-2.015-0.021-3.636-0.753-4.812-2.302c-1.226-1.612-2.607-2.84-4.714-3.041
			c-0.748-0.072-1.204-0.556-1.656-1.16c-1.721-2.301-4.161-2.966-6.92-2.977c-3.18-0.012-6.305-0.649-9.162-1.961
			c-2.812-1.29-4.709-0.447-6.128,3.536c-1.026-1.324-0.896-2.706-1.033-4.023c-0.415-4.006-3.237-5.846-7.091-4.652
			c-3.224,0.999-5.422-0.192-6.393-3.456c-0.518-1.741-0.302-3.475-0.057-5.231c0.454-3.268-1.664-5.787-4.958-5.688
			c-6.073,0.182-6.421-1.446-4.843-7.111c0.337-1.212,1.128-2.169,1.835-3.183c0.959-1.376,0.347-2.112-1.138-2.355
			c-3.48-0.568-5.604,0.755-6.68,4.208c-0.337,1.081-0.877,2.041-2.023,2.211c-3.616,0.535-7.03,0.521-9.384-3.099
			c-2.317-3.563-3.651-7.246-1.106-11.326c0.458-0.732,0.671-1.623,0.961-2.453c1.351-3.865,4.218-5.812,8.155-6.042
			c3.122-0.182,6.117-0.507,8.832-2.244c1.084-0.694,2.44-0.755,3.578-0.254c1.634,0.72,3.188,1.164,5.042,1.059
			c1.676-0.095,2.228,1.426,2.455,2.925c0.336,2.215,1.061,4.275,2.61,5.954c0.712,0.771,1.448,1.7,2.675,1.247
			c1.271-0.469,1.138-1.67,1.085-2.709c-0.117-2.306-0.792-4.494-1.513-6.673c-1.383-4.187-0.699-5.964,2.979-8.438
			c4.203-2.827,7.046-6.583,7.709-11.752c0.211-1.648,1.396-2.685,2.249-3.986c2.442-3.721,6.682-5.703,8.822-9.632
			c1.238-2.272,3.35-3.296,5.777-3.746c1.556-0.288,3.123-0.498,4.64-1.345c0.251,0.755-0.457,0.893-0.646,1.272
			c-0.396,0.792-0.495,1.532,0.2,2.164c0.77,0.7,1.672,0.684,2.382-0.013c1.768-1.735,3.832-2.743,6.299-3.002
			c0.843-0.089,1.564-0.531,1.462-1.53c-0.105-1.027-0.973-1.184-1.778-1.188c-2.051-0.011-3.867-0.422-4.858-2.476
			c-0.487-1.01-1.921-1.785-0.007-3.109c1.232-0.853,0.117-2.644-1.784-2.639c-1.722,0.004-3.441,0.347-5.813,0.614
			c4.157-2.369,7.911-3.601,12.07-2.641c2.021,0.466,3.865,0.188,5.604-0.78c1.413-0.787,2.87-1.265,4.47-1.482
			c2.416-0.329,3.775-1.809,3.97-4.226c0.261-3.243,0.169-6.383-3.005-8.444c-1.935-1.257-3.93-1.258-6.073-0.667
			c-2.13,0.586-3.827,0.123-4.559-2.276c-0.607-1.995-2.294-3.296-3.458-4.92c-1.003-1.399-2.434-0.859-3.609,0.324
			c-3.024,3.044-5.459,2.326-7.524-1.291c-1.837-3.215-5.116-4.92-8.948-5.145c-1.755-0.103-3.528,0.008-5.268-0.199
			c-2.01-0.239-2.631,0.733-2.351,2.443c0.333,2.031,0.566,3.902-0.827,5.755c-0.728,0.966,0.209,1.936,0.981,2.726
			c2.211,2.261,2.362,3.635-0.205,5.319c-2.855,1.874-3.733,4.127-3.23,7.344c0.215,1.375-0.006,3.096-1.769,3.371
			c-1.835,0.286-2.164-1.463-2.645-2.746c-0.275-0.733-0.339-1.544-0.5-2.32c-0.927-4.485-3.461-6.325-7.919-5.688
			c-2.952,0.422-5.829-0.151-8.571-1.001c-3.893-1.207-5.336-5.377-3.593-9.06c1.551-3.277,3.546-5.624,7.52-6.126
			c2.472-0.312,4.725-1.544,5.554-4.52c0.391-1.398,1.508-2.778,3.644-2.12c0.823,0.253,1.896-0.174,2.823-0.414
			c1.652-0.426,3.479-1.144,3.758-2.863c0.256-1.583-1.402-2.611-2.778-3.114c-1.828-0.668-3.431,0.192-4.676,1.571
			c-0.456,0.504-0.571,1.339-1.285,1.612c-0.864,0.331-2.093,1.339-1.935-0.838c0.052-0.723-0.586-1.429-1.09-1.195
			c-2.091,0.971-4.061-0.34-6.012-0.128c-2.197,0.238-2.86,2.691-4.231,4.094c-1.42,1.453-2.611,2.158-4.569,1.505
			c-0.728-0.243-1.656-0.424-2.335-0.185c-4.396,1.547-9.242,1.229-13.493,3.35c-2.863,1.428-5.966,1.977-9.398,1.984
			c1.793-1.533,3.509-3.168,5.391-4.582c16.633-12.485,35.223-20.54,55.71-24.011c7.966-1.35,16.041-2.424,24.143-0.889
			c3.349,0.635,6.369,2.001,8.58,4.772c1.193,1.497,3.006,1.949,5.166,2.468c-2.052,0.928-4.84-0.685-5.206,2.136
			c-0.304,2.346,2.089,1.408,3.312,1.873c-2.197,4.662-2.019,5.421,2.025,8.599c0.914,0.718,1.66,1.567,2.181,2.612
			c2.885,5.788,7.629,7.971,13.909,7.169c1.571-0.2,2.97,0.057,4.053,1.355c1.078,1.291,2.357,2.253,4.123,1.445
			c1.83-0.838,2.327-2.848,1.879-4.269c-0.802-2.537,0.788-4.751,0.299-7.181c-0.281-1.39,0.877-2.021,2.172-2.056
			c2.832-0.075,4.929-1.281,6.758-3.494c2.062-2.496,5.312-2.997,8.144-1.519c8.698,4.54,16.651,10.194,24.087,16.564
			c7.309,6.261,13.797,13.306,19.473,21.08c0.714,0.976,2.665,2.691-0.814,2.431c-0.47-0.035-0.947,0.358-0.874,0.813
			c0.351,2.202-1.562,1.602-2.552,2.136c-1.803-5.833-5.919-10.156-9.605-14.765c-0.627-0.783-0.947-2.235-2.301-1.254
			c-1.087,0.789-0.96,2.246-0.261,3.107c1.139,1.405,1.523,3.356,3.334,4.302c1.147,0.599,1.2,1.646,0.729,2.949
			c-0.714,1.974-0.496,4.186,1.715,4.886C265.441,97.5,267.612,98.337,269.854,97.608z M167.019,69.979
			c0.644,0.097,1.071,0.181,1.503,0.222c1.102,0.105,2.271,0.011,2.729-1.1c0.517-1.255-0.659-1.919-1.466-2.506
			c-0.836-0.609-1.863-0.952-2.79-1.442c-0.751-0.396-1.839-0.683-1.273-1.874c0.495-1.044,1.35-0.444,2.064-0.198
			c0.33,0.113,0.676,0.259,0.936,0.481c1.752,1.498,3.487,2.031,5.559,0.439c0.763-0.587,1.849-0.877,1.896-1.967
			c0.06-1.379-1.252-1.247-2.105-1.511c-2.51-0.776-5.059-1.431-7.551-2.258c-1.233-0.41-2.727-0.875-1.312-2.73
			c0.627-0.823,0.036-1.437-0.785-1.424c-3.597,0.053-6.575-2.869-10.313-2.103c-0.271,0.056-0.782-0.148-0.898-0.376
			c-1.776-3.471-4.177-1.333-6.333-0.668c-1.92,0.591-3.754,1.437-5.105-0.932c-0.421-0.738-1.139-0.535-1.869-0.518
			c-2.753,0.063-4.635,1.566-6.005,3.768c-1.143-0.824-0.418-2.898-2.21-2.504c-1.431,0.315-2.932,0.653-4.048,1.786
			c-0.989,1.003-1.076,2.045-0.551,3.365c0.545,1.366,1.479,1.662,2.714,1.446c2.449-0.428,4.916-0.226,7.375-0.301
			c1.23-0.038,2.516,0.078,3.613-0.571c3.406-2.015,6.547-0.914,9.665,0.712c0.78,0.407,1.554,0.828,2.351,1.201
			c3.046,1.43,3.067,1.541,0.65,3.655c-0.257,0.226-0.679,0.51-0.67,0.755c0.081,2.556-1.973,1.928-3.334,2.223
			c-0.746,0.162-1.605-0.145-2.33,0.058c-0.964,0.271-2.307,0.563-2.059,1.946c0.222,1.234,1.638,1.281,2.398,0.994
			c4.026-1.518,7.634-1.466,10.593,2.122c0.045,0.055,0.166,0.046,0.25,0.071c2.405,0.709,4.806,1.435,7.218,2.118
			c0.719,0.204,1.527,0.881,2.204,0.117C168.601,71.489,167.166,71.017,167.019,69.979z M144.709,173.686
			c0.88,0,1.586,0.049,2.282-0.012c0.932-0.081,2.164,0.028,2.197-1.303c0.027-1.146-1.121-1.146-1.95-1.359
			c-1.714-0.438-3.167-1.375-4.693-2.239c-3.449-1.953-7.111-3.394-11.209-3.12c-1.44,0.096-2.755,0.544-3.812,1.566
			c-0.465,0.451-0.771,1.028-0.304,1.63c0.409,0.527,1.025,0.359,1.412,0.017c2.116-1.866,4.304-0.986,6.37-0.075
			c2.142,0.945,5.164,0.987,6.214,3.041C142.216,173.786,143.175,174.027,144.709,173.686z M151.47,175.189
			c-1.046,0.915-2.821-0.412-2.773,1.328c0.038,1.409,1.635,0.929,2.594,1.044c0.952,0.114,1.905-0.001,2.672,0.812
			c0.655,0.693,1.435,0.597,2.087-0.066c1.105-1.124,2.574-0.951,3.937-1.146c0.615-0.088,1.511,0.634,1.76-0.434
			c0.204-0.874-0.544-1.374-1.17-1.887c-2.194-1.796-4.772-1.795-7.438-1.974C150.62,172.698,150.209,173.302,151.47,175.189z
			 M256.566,92.966c1.096-0.133,2.562,0.199,2.963-1.139c0.534-1.785-0.545-3.398-1.34-4.891c-0.562-1.054-1.84-1.308-3.034-0.958
			c-1.483,0.435-2.626,1.098-1.659,2.984c0.31,0.603,0.406,1.334,0.507,2.021C254.223,92.496,255.117,93.071,256.566,92.966z"/>
		<path fill-rule="evenodd" clip-rule="evenodd" fill="#88C0D0" d="M41.676,166.94c0.505-20.607,5.549-40.029,14.938-58.333
			c0.774-1.51,1.354-3.91,3.142-3.861c1.584,0.042,1.28,2.585,2.055,3.915c2.728,4.681,3.188,9.452,1.179,14.659
			c-1.586,4.113-1.247,8.486,0.109,12.716c0.537,1.674,1.145,3.327,1.251,5.112c0.096,1.59,1.073,2.546,2.462,3.142
			c1.907,0.818,2.847,2.22,2.818,4.328c-0.021,1.549,0.572,2.939,1.546,4.126c0.922,1.124,1.595,2.312,1.563,3.815
			c-0.005,0.259-0.011,0.639,0.144,0.761c2.959,2.337,3.189,6.388,5.68,9.011c0.468,0.492,0.88,1.344,1.686,0.848
			c0.901-0.556,0.381-1.332,0.065-2.087c-1.687-4.029-3.021-8.201-5.903-11.669c-0.756-0.909-1.68-3.114-0.355-3.707
			c1.256-0.562,1.116,1.738,1.733,2.688c2.319,3.573,4.081,7.522,7.181,10.566c2.211,2.171,3.55,4.79,3.96,7.865
			c0.372,2.798,1.942,4.643,4.487,5.721c3.397,1.439,6.895,2.653,9.829,5.031c1.097,0.888,2.485,0.705,3.808,0.354
			c1.766-0.469,3.363-0.284,4.387,1.441c1.324,2.232,3.381,3.229,5.828,3.663c3.819,0.679,7.14,1.922,7.97,6.419
			c0.25,1.357,1.521,2.067,2.746,2.673c2.991,1.479,5.976,2.973,8.92,4.539c1.309,0.697,2.025,0.272,2.359-0.996
			c0.296-1.126,0.895-1.688,2.074-1.482c0.646,0.112,1.245,0.431,1.304,1.123c0.093,1.116-0.912,1.408-1.649,1.821
			c-5.183,2.897-7.43,7.441-7.05,13.206c0.208,3.146-1.345,5.291-3.437,7.03c-1.41,1.173-1.536,2.604-2.075,4.058
			c-0.583,1.571-1.276,2.862,0.492,4.16c0.685,0.503-0.138,1.03-0.539,1.47c-1.6,1.748-1.438,4.632,0.63,5.805
			c2.312,1.312,3.627,3.285,4.652,5.545c2.926,6.446,7.605,11.141,14.004,14.113c2.517,1.169,3.705,3.024,3.699,5.819
			c-0.008,3.96-0.445,7.746-1.443,11.667c-1.006,3.95-1.149,8.188-2.103,12.266c-0.384,1.646,0.679,3.588,0.849,5.417
			c0.227,2.432-0.556,3.027-2.885,2.547c-20.875-4.305-39.386-13.626-55.681-27.152c-13.82-11.473-24.712-25.403-32.755-41.572
			c-8.289-16.666-12.812-34.195-13.206-52.803C42.104,170.789,41.837,168.866,41.676,166.94z"/>
		<path fill-rule="evenodd" clip-rule="evenodd" fill="#88C0D0" d="M276.834,114.4c1.155,0.986,2.278,1.193,3.535,0.158
			c0.814-0.671,1.627-0.154,1.799,0.736c0.503,2.602,2.363,4.222,3.995,6.055c0.803,0.901,1.438,2.001,1.945,3.105
			c1.118,2.436,1.162,2.472,3.237-0.083c1.579,4.124,2.903,8.055,3.558,12.144c0.28,1.752-1.341,2.072-2.523,1.305
			c-2.548-1.652-5.207-3.178-6.534-6.252c-2.477-5.731-6.855-7.296-12.428-4.655c-0.717,0.339-1.438,0.893-2.221,0.643
			c-1.369-0.436-3.578-0.445-3.715-1.861c-0.135-1.382,1.956-0.815,3.059-1.12c1.268-0.351,2.405-0.923,2.521-2.34
			c0.183-2.253,0.495-4.307,2.702-5.627C276.311,116.279,276.441,115.256,276.834,114.4z"/>
		<path fill-rule="evenodd" clip-rule="evenodd" fill="#5E81AC" d="M183.734,33.181c6.905,1.315,13.927,1.963,20.746,3.79
			c24.002,6.427,44.806,18.312,62.318,36.005c20.599,20.811,33.372,45.635,37.745,74.529c3.188,21.059,1.794,41.919-4.826,62.34
			c-6.635,20.467-17.474,38.297-32.555,53.621c-21.838,22.188-48.241,35.433-79.004,39.438c-17.184,2.237-34.368,1.333-51.333-3.047
			c-21.589-5.572-40.62-15.794-57.06-30.704c-19.556-17.736-33.161-39.271-40.052-64.896c-6.699-24.914-6.416-49.782,0.734-74.521
			c5.818-20.129,16.102-37.832,30.283-53.201c10.949-11.866,23.565-21.726,37.99-29.02c14.562-7.364,29.995-12.117,46.281-13.882
			c0.779-0.084,1.546-0.298,2.317-0.452C166.126,33.181,174.93,33.181,183.734,33.181z M269.829,97.641
			c0.991-0.534,2.903,0.066,2.553-2.136c-0.073-0.455,0.404-0.848,0.874-0.813c3.479,0.26,1.528-1.455,0.814-2.431
			c-5.676-7.774-12.164-14.819-19.473-21.08c-7.436-6.371-15.389-12.025-24.087-16.564c-2.832-1.478-6.081-0.978-8.144,1.519
			c-1.829,2.213-3.926,3.419-6.758,3.494c-1.295,0.035-2.453,0.666-2.172,2.056c0.489,2.43-1.101,4.644-0.299,7.181
			c0.448,1.421-0.049,3.431-1.879,4.269c-1.766,0.808-3.045-0.154-4.123-1.445c-1.083-1.298-2.481-1.555-4.053-1.355
			c-6.28,0.802-11.024-1.381-13.909-7.169c-0.521-1.045-1.267-1.894-2.181-2.612c-4.044-3.178-4.223-3.937-2.025-8.599
			c-1.224-0.464-3.616,0.474-3.312-1.873c0.366-2.821,3.154-1.208,5.206-2.136c-2.16-0.519-3.973-0.972-5.166-2.468
			c-2.211-2.771-5.231-4.138-8.58-4.772c-8.102-1.535-16.177-0.461-24.143,0.889c-20.487,3.471-39.077,11.526-55.71,24.011
			c-1.882,1.413-3.598,3.049-5.391,4.582c3.433-0.007,6.535-0.556,9.398-1.984c4.251-2.121,9.098-1.803,13.493-3.35
			c0.679-0.239,1.607-0.059,2.335,0.185c1.958,0.653,3.149-0.052,4.569-1.505c1.371-1.403,2.034-3.856,4.231-4.094
			c1.951-0.212,3.921,1.1,6.012,0.128c0.504-0.234,1.142,0.472,1.09,1.195c-0.158,2.178,1.07,1.169,1.935,0.838
			c0.714-0.273,0.829-1.108,1.285-1.612c1.245-1.378,2.848-2.239,4.676-1.571c1.376,0.503,3.034,1.532,2.778,3.114
			c-0.278,1.719-2.105,2.437-3.758,2.863c-0.928,0.24-2,0.667-2.823,0.414c-2.136-0.658-3.253,0.722-3.644,2.12
			c-0.829,2.975-3.082,4.207-5.554,4.52c-3.974,0.503-5.969,2.849-7.52,6.126c-1.743,3.683-0.3,7.854,3.593,9.06
			c2.742,0.85,5.619,1.423,8.571,1.001c4.458-0.637,6.992,1.202,7.919,5.688c0.161,0.776,0.225,1.587,0.5,2.32
			c0.48,1.283,0.81,3.032,2.645,2.746c1.763-0.275,1.983-1.997,1.769-3.371c-0.503-3.216,0.375-5.47,3.23-7.344
			c2.567-1.684,2.416-3.058,0.205-5.319c-0.772-0.79-1.709-1.76-0.981-2.726c1.394-1.853,1.16-3.724,0.827-5.755
			c-0.28-1.71,0.341-2.683,2.351-2.443c1.739,0.207,3.513,0.096,5.268,0.199c3.832,0.225,7.111,1.93,8.948,5.145
			c2.065,3.616,4.5,4.334,7.524,1.291c1.176-1.184,2.606-1.724,3.609-0.324c1.164,1.624,2.851,2.926,3.458,4.92
			c0.731,2.399,2.429,2.862,4.559,2.276c2.144-0.591,4.139-0.59,6.073,0.667c3.174,2.061,3.266,5.202,3.005,8.444
			c-0.194,2.417-1.554,3.897-3.97,4.226c-1.6,0.217-3.057,0.695-4.47,1.482c-1.738,0.968-3.582,1.247-5.604,0.78
			c-4.159-0.96-7.913,0.271-12.07,2.641c2.372-0.267,4.092-0.61,5.813-0.614c1.901-0.005,3.017,1.787,1.784,2.639
			c-1.914,1.325-0.48,2.1,0.007,3.109c0.991,2.054,2.808,2.465,4.858,2.476c0.806,0.005,1.673,0.161,1.778,1.188
			c0.103,0.999-0.619,1.441-1.462,1.53c-2.467,0.26-4.531,1.268-6.299,3.002c-0.71,0.697-1.612,0.713-2.382,0.013
			c-0.695-0.632-0.597-1.371-0.2-2.164c0.189-0.379,0.897-0.518,0.646-1.272c-1.517,0.848-3.084,1.057-4.64,1.345
			c-2.428,0.45-4.539,1.474-5.777,3.746c-2.141,3.929-6.38,5.911-8.822,9.632c-0.853,1.301-2.038,2.338-2.249,3.986
			c-0.663,5.169-3.506,8.926-7.709,11.752c-3.679,2.474-4.362,4.251-2.979,8.438c0.721,2.179,1.396,4.367,1.513,6.673
			c0.053,1.039,0.186,2.24-1.085,2.709c-1.227,0.453-1.963-0.476-2.675-1.247c-1.55-1.678-2.274-3.739-2.61-5.954
			c-0.228-1.499-0.779-3.02-2.455-2.925c-1.854,0.104-3.408-0.339-5.042-1.059c-1.138-0.501-2.494-0.44-3.578,0.254
			c-2.715,1.737-5.71,2.062-8.832,2.244c-3.938,0.229-6.805,2.177-8.155,6.042c-0.29,0.83-0.503,1.721-0.961,2.453
			c-2.545,4.08-1.211,7.763,1.106,11.326c2.354,3.62,5.768,3.634,9.384,3.099c1.146-0.17,1.687-1.13,2.023-2.211
			c1.076-3.453,3.199-4.776,6.68-4.208c1.484,0.243,2.097,0.979,1.138,2.355c-0.707,1.014-1.498,1.971-1.835,3.183
			c-1.578,5.665-1.23,7.293,4.843,7.111c3.294-0.1,5.412,2.42,4.958,5.688c-0.245,1.757-0.461,3.49,0.057,5.231
			c0.971,3.264,3.169,4.455,6.393,3.456c3.854-1.193,6.676,0.646,7.091,4.652c0.137,1.317,0.007,2.699,1.033,4.023
			c1.419-3.983,3.315-4.826,6.128-3.536c2.857,1.312,5.982,1.949,9.162,1.961c2.759,0.011,5.199,0.676,6.92,2.977
			c0.452,0.604,0.908,1.088,1.656,1.16c2.106,0.201,3.488,1.429,4.714,3.041c1.176,1.549,2.797,2.28,4.812,2.302
			c6.984,0.073,10.462,2.486,12.272,9.16c0.522,1.927,1.472,2.088,2.848,2.235c3.458,0.372,6.686,1.344,9.709,3.136
			c4.251,2.521,9.312,2.895,13.743,5.21c3.244,1.695,3.991,1.665,3.606,5.364c-0.262,2.515-1.408,4.489-3.499,5.935
			c-1.311,0.905-2.9,1.866-3.104,3.461c-0.76,5.954-3.597,10.928-6.714,15.875c-1.236,1.961-2.579,3.303-4.895,3.47
			c-2.402,0.173-4.614,1.096-6.912,1.672c-1.982,0.497-3.211,1.743-3.42,3.862c-0.089,0.894-0.431,1.653-1.037,2.364
			c-4.656,5.46-11.278,8.42-16.573,13.064c-0.256,0.225-0.625,0.483-0.928,0.468c-3.571-0.182-6.477,1.109-9.107,3.521
			c-0.87,0.797-2.511,0.676-3.515,1.653c-0.691,0.674-1.598,1.251-1.203,2.408c0.362,1.061,1.36,0.974,2.226,1.021
			c5.089,0.282,10.153,0.436,15.277,0.189c16.219-0.778,31.729-4.397,46.436-11.146c24.251-11.129,43.45-28.068,57.349-50.923
			c0.68-1.118,0.741-2.307,0.82-3.543c0.323-5.049,1.048-10.12,3.588-14.496c3.289-5.666,2.961-11.236,0.828-16.992
			c-0.832-2.247-1.071-4.425-0.215-6.686c0.557-1.471,0.885-3.062-0.499-4.14c-1.505-1.172-3.271-2.448-5.303-1.604
			c-4.427,1.838-9.181,1.463-13.748,2.3c-1.189,0.218-2.175-0.138-3.093-1.04c-4.193-4.126-8.511-8.125-11.771-13.099
			c-0.942-1.438-1.905-6.898-1.046-8.165c1.733-2.555,1.688-4.96,0.107-7.617c-1.909-3.21-1.621-7.392,0.856-9.845
			c3.612-3.575,5.406-8.465,9.036-11.998c0.335-0.326,0.535-0.952,0.532-1.436c-0.021-2.839,1.191-5.003,3.205-6.958
			c2.265-2.199,1.566-4.61-1.483-5.413c-1.513-0.398-1.767-1.367-2.35-2.668c-1.545-3.451,0.131-7.044-0.977-10.478
			c-0.517-1.601,0.55-2.532,2.282-2.134c1.499,0.344,3.094,0.2,4.467,1.284c0.769,0.607,2.057,0.864,2.928-0.071
			c0.842-0.905,0.521-2.033,0.006-2.965c-0.978-1.767-1.977-3.562-4.004-4.387c-0.758-0.308-1.585-0.65-1.382-1.642
			c0.243-1.188,1.226-1.068,2.121-0.907c2.142,0.386,3.612-0.362,4.303-2.479L269.829,97.641z M41.676,166.94
			c0.161,1.926,0.428,3.849,0.469,5.778c0.394,18.607,4.917,36.137,13.206,52.803c8.043,16.169,18.935,30.1,32.755,41.572
			c16.295,13.526,34.806,22.848,55.681,27.152c2.329,0.48,3.111-0.115,2.885-2.547c-0.17-1.829-1.232-3.771-0.849-5.417
			c0.953-4.077,1.097-8.315,2.103-12.266c0.998-3.921,1.436-7.707,1.443-11.667c0.006-2.795-1.183-4.65-3.699-5.819
			c-6.398-2.973-11.078-7.667-14.004-14.113c-1.025-2.26-2.34-4.232-4.652-5.545c-2.067-1.173-2.229-4.057-0.63-5.805
			c0.401-0.439,1.224-0.967,0.539-1.47c-1.769-1.298-1.075-2.589-0.492-4.16c0.539-1.454,0.665-2.885,2.075-4.058
			c2.092-1.739,3.645-3.885,3.437-7.03c-0.38-5.765,1.867-10.309,7.05-13.206c0.737-0.413,1.742-0.705,1.649-1.821
			c-0.059-0.692-0.658-1.011-1.304-1.123c-1.18-0.206-1.778,0.356-2.074,1.482c-0.334,1.269-1.051,1.693-2.359,0.996
			c-2.944-1.566-5.929-3.061-8.92-4.539c-1.226-0.605-2.496-1.315-2.746-2.673c-0.83-4.497-4.15-5.74-7.97-6.419
			c-2.447-0.434-4.504-1.431-5.828-3.663c-1.023-1.726-2.621-1.91-4.387-1.441c-1.322,0.352-2.711,0.534-3.808-0.354
			c-2.935-2.378-6.432-3.592-9.829-5.031c-2.545-1.078-4.115-2.923-4.487-5.721c-0.41-3.075-1.749-5.694-3.96-7.865
			c-3.1-3.044-4.861-6.993-7.181-10.566c-0.617-0.951-0.478-3.251-1.733-2.688c-1.324,0.593-0.4,2.798,0.355,3.707
			c2.883,3.468,4.217,7.64,5.903,11.669c0.315,0.755,0.836,1.532-0.065,2.087c-0.806,0.496-1.218-0.355-1.686-0.848
			c-2.49-2.623-2.721-6.674-5.68-9.011c-0.154-0.122-0.148-0.502-0.144-0.761c0.031-1.503-0.642-2.692-1.563-3.815
			c-0.974-1.188-1.567-2.578-1.546-4.126c0.028-2.108-0.911-3.51-2.818-4.328c-1.389-0.596-2.366-1.552-2.462-3.142
			c-0.106-1.786-0.714-3.438-1.251-5.112c-1.356-4.229-1.695-8.603-0.109-12.716c2.01-5.208,1.549-9.979-1.179-14.659
			c-0.774-1.33-0.471-3.873-2.055-3.915c-1.787-0.048-2.367,2.352-3.142,3.861C47.225,126.911,42.181,146.333,41.676,166.94z
			 M276.834,114.4c-0.393,0.856-0.523,1.879-1.07,2.207c-2.207,1.32-2.52,3.374-2.702,5.627c-0.115,1.417-1.253,1.99-2.521,2.34
			c-1.103,0.305-3.193-0.262-3.059,1.12c0.137,1.417,2.346,1.426,3.715,1.861c0.783,0.25,1.504-0.304,2.221-0.643
			c5.572-2.641,9.951-1.076,12.428,4.655c1.327,3.074,3.986,4.6,6.534,6.252c1.183,0.768,2.804,0.447,2.523-1.305
			c-0.654-4.089-1.979-8.02-3.558-12.144c-2.075,2.555-2.119,2.519-3.237,0.083c-0.507-1.104-1.143-2.204-1.945-3.105
			c-1.632-1.833-3.492-3.454-3.995-6.055c-0.172-0.891-0.984-1.408-1.799-0.736C279.112,115.593,277.989,115.386,276.834,114.4z
			 M168.521,70.201c1.102,0.105,2.271,0.011,2.729-1.1c0.517-1.255-0.659-1.919-1.466-2.506c-0.836-0.609-1.863-0.952-2.79-1.442
			c-0.751-0.396-1.839-0.683-1.273-1.874c0.495-1.044,1.35-0.444,2.064-0.198c0.33,0.113,0.676,0.259,0.936,0.481
			c1.752,1.498,3.487,2.031,5.559,0.439c0.763-0.587,1.849-0.877,1.896-1.967c0.06-1.379-1.252-1.247-2.105-1.511
			c-2.51-0.776-5.059-1.431-7.551-2.258c-1.233-0.41-2.727-0.875-1.312-2.73c0.627-0.823,0.036-1.437-0.785-1.424
			c-3.597,0.053-6.575-2.869-10.313-2.103c-0.271,0.056-0.782-0.148-0.898-0.376c-1.776-3.471-4.177-1.333-6.333-0.668
			c-1.92,0.591-3.754,1.437-5.105-0.932c-0.421-0.738-1.139-0.535-1.869-0.518c-2.753,0.063-4.635,1.566-6.005,3.768
			c-1.143-0.824-0.418-2.898-2.21-2.504c-1.431,0.315-2.932,0.653-4.048,1.786c-0.989,1.003-1.076,2.045-0.551,3.365
			c0.545,1.366,1.479,1.662,2.714,1.446c2.449-0.428,4.916-0.226,7.375-0.301c1.23-0.038,2.516,0.078,3.613-0.571
			c3.406-2.015,6.547-0.914,9.665,0.712c0.78,0.407,1.554,0.828,2.351,1.201c3.046,1.43,3.067,1.541,0.65,3.655
			c-0.257,0.226-0.679,0.51-0.67,0.755c0.081,2.556-1.973,1.928-3.334,2.223c-0.746,0.162-1.605-0.145-2.33,0.058
			c-0.964,0.271-2.307,0.563-2.059,1.946c0.222,1.234,1.638,1.281,2.398,0.994c4.026-1.518,7.634-1.466,10.593,2.122
			c0.045,0.055,0.166,0.046,0.25,0.071c2.405,0.709,4.806,1.435,7.218,2.118c0.719,0.204,1.527,0.881,2.204,0.117
			c0.873-0.985-0.562-1.457-0.709-2.495C167.662,70.076,168.09,70.16,168.521,70.201z M269.83,97.641
			c-1.803-5.833-5.919-10.156-9.605-14.765c-0.627-0.783-0.947-2.235-2.301-1.254c-1.087,0.789-0.96,2.246-0.261,3.107
			c1.139,1.405,1.523,3.356,3.334,4.302c1.147,0.599,1.2,1.646,0.729,2.949c-0.714,1.974-0.496,4.186,1.715,4.886
			c2.001,0.633,4.172,1.47,6.414,0.742L269.83,97.641z M146.991,173.674c0.932-0.081,2.164,0.028,2.197-1.303
			c0.027-1.146-1.121-1.146-1.95-1.359c-1.714-0.438-3.167-1.375-4.693-2.239c-3.449-1.953-7.111-3.394-11.209-3.12
			c-1.44,0.096-2.755,0.544-3.812,1.566c-0.465,0.451-0.771,1.028-0.304,1.63c0.409,0.527,1.025,0.359,1.412,0.017
			c2.116-1.866,4.304-0.986,6.37-0.075c2.142,0.945,5.164,0.987,6.214,3.041c0.999,1.954,1.958,2.195,3.492,1.854
			C145.589,173.686,146.295,173.734,146.991,173.674z M148.696,176.518c0.038,1.409,1.635,0.929,2.594,1.044
			c0.952,0.114,1.905-0.001,2.672,0.812c0.655,0.693,1.435,0.597,2.087-0.066c1.105-1.124,2.574-0.951,3.937-1.146
			c0.615-0.088,1.511,0.634,1.76-0.434c0.204-0.874-0.544-1.374-1.17-1.887c-2.194-1.796-4.772-1.795-7.438-1.974
			c-2.518-0.168-2.929,0.436-1.668,2.323C150.424,176.104,148.648,174.777,148.696,176.518z M259.529,91.827
			c0.534-1.785-0.545-3.398-1.34-4.891c-0.562-1.054-1.84-1.308-3.034-0.958c-1.483,0.435-2.626,1.098-1.659,2.984
			c0.31,0.603,0.406,1.334,0.507,2.021c0.22,1.513,1.114,2.088,2.563,1.98C257.662,92.833,259.129,93.165,259.529,91.827z"/>
	</g>
</g>
<g id="Layer_4">
	<path display="none" fill="#FFFFFF" d="M170.5,66.293c-28.627,0-51.613,25.081-51.613,53.707L170.5,220h0.34l51.613-100
		c0-0.375-0.005-0.75-0.013-1.125C221.84,90.72,198.751,66.293,170.5,66.293z"/>
	<ellipse display="none" fill="#FFFFFF" cx="170.84" cy="263.581" rx="34.66" ry="8.087"/>
	<g>
		<defs>
			<path id="SVGID_1_" d="M222.44,118.875c0.008,0.375,0.013,0.75,0.013,1.125L170.84,220h-0.34l-51.613-100
				c0-28.626,22.986-53.707,51.613-53.707C198.751,66.293,221.84,90.72,222.44,118.875z M170.84,255.494
				c-19.143,0-34.66,3.621-34.66,8.087s15.518,8.087,34.66,8.087s34.66-3.621,34.66-8.087S189.982,255.494,170.84,255.494z"/>
		</defs>
		<clipPath id="SVGID_2_">
			<use xlink:href="#SVGID_1_"  overflow="visible"/>
		</clipPath>
		<g clip-path="url(#SVGID_2_)">
			<path fill-rule="evenodd" clip-rule="evenodd" fill="#88C0D0" d="M269.854,97.608c-0.69,2.118-2.161,2.866-4.303,2.479
				c-0.896-0.161-1.878-0.28-2.121,0.907c-0.203,0.991,0.624,1.333,1.382,1.642c2.027,0.825,3.026,2.621,4.004,4.387
				c0.515,0.932,0.836,2.06-0.006,2.965c-0.871,0.935-2.159,0.678-2.928,0.071c-1.373-1.084-2.968-0.94-4.467-1.284
				c-1.732-0.398-2.799,0.533-2.282,2.134c1.107,3.434-0.568,7.027,0.977,10.478c0.583,1.301,0.837,2.27,2.35,2.668
				c3.05,0.803,3.748,3.214,1.483,5.413c-2.014,1.956-3.227,4.119-3.205,6.958c0.003,0.484-0.197,1.11-0.532,1.436
				c-3.63,3.532-5.424,8.422-9.036,11.998c-2.478,2.453-2.766,6.634-0.856,9.845c1.58,2.657,1.626,5.062-0.107,7.617
				c-0.859,1.267,0.104,6.728,1.046,8.165c3.261,4.974,7.578,8.973,11.771,13.099c0.918,0.902,1.903,1.258,3.093,1.04
				c4.567-0.837,9.321-0.462,13.748-2.3c2.031-0.844,3.798,0.433,5.303,1.604c1.384,1.077,1.056,2.669,0.499,4.14
				c-0.856,2.261-0.617,4.438,0.215,6.686c2.133,5.756,2.461,11.326-0.828,16.992c-2.54,4.376-3.265,9.447-3.588,14.496
				c-0.079,1.236-0.141,2.425-0.82,3.543c-13.898,22.854-33.098,39.794-57.349,50.923c-14.706,6.748-30.217,10.367-46.436,11.146
				c-5.124,0.246-10.188,0.093-15.277-0.189c-0.865-0.048-1.863,0.039-2.226-1.021c-0.395-1.157,0.512-1.734,1.203-2.408
				c1.004-0.978,2.645-0.856,3.515-1.653c2.631-2.411,5.536-3.702,9.107-3.521c0.303,0.016,0.672-0.243,0.928-0.468
				c5.295-4.645,11.917-7.604,16.573-13.064c0.606-0.711,0.948-1.471,1.037-2.364c0.209-2.119,1.438-3.365,3.42-3.862
				c2.298-0.576,4.51-1.499,6.912-1.672c2.315-0.167,3.658-1.509,4.895-3.47c3.117-4.947,5.954-9.921,6.714-15.875
				c0.204-1.595,1.794-2.556,3.104-3.461c2.091-1.445,3.237-3.42,3.499-5.935c0.385-3.699-0.362-3.669-3.606-5.364
				c-4.431-2.315-9.492-2.689-13.743-5.21c-3.023-1.792-6.251-2.764-9.709-3.136c-1.376-0.147-2.325-0.309-2.848-2.235
				c-1.811-6.674-5.288-9.087-12.272-9.16c-2.015-0.021-3.636-0.753-4.812-2.302c-1.226-1.612-2.607-2.84-4.714-3.041
				c-0.748-0.072-1.204-0.556-1.656-1.16c-1.721-2.301-4.161-2.966-6.92-2.977c-3.18-0.012-6.305-0.649-9.162-1.961
				c-2.812-1.29-4.709-0.447-6.128,3.536c-1.026-1.324-0.896-2.706-1.033-4.023c-0.415-4.006-3.237-5.846-7.091-4.652
				c-3.224,0.999-5.422-0.192-6.393-3.456c-0.518-1.741-0.302-3.475-0.057-5.231c0.454-3.268-1.664-5.787-4.958-5.688
				c-6.073,0.182-6.421-1.446-4.843-7.111c0.337-1.212,1.128-2.169,1.835-3.183c0.959-1.376,0.347-2.112-1.138-2.355
				c-3.48-0.568-5.604,0.755-6.68,4.208c-0.337,1.081-0.877,2.041-2.023,2.211c-3.616,0.535-7.03,0.521-9.384-3.099
				c-2.317-3.563-3.651-7.246-1.106-11.326c0.458-0.732,0.671-1.623,0.961-2.453c1.351-3.865,4.218-5.812,8.155-6.042
				c3.122-0.182,6.117-0.507,8.832-2.244c1.084-0.694,2.44-0.755,3.578-0.254c1.634,0.72,3.188,1.164,5.042,1.059
				c1.676-0.095,2.228,1.426,2.455,2.925c0.336,2.215,1.061,4.275,2.61,5.954c0.712,0.771,1.448,1.7,2.675,1.247
				c1.271-0.469,1.138-1.67,1.085-2.709c-0.117-2.306-0.792-4.494-1.513-6.673c-1.383-4.187-0.699-5.964,2.979-8.438
				c4.203-2.827,7.046-6.583,7.709-11.752c0.211-1.648,1.396-2.685,2.249-3.986c2.442-3.721,6.682-5.703,8.822-9.632
				c1.238-2.272,3.35-3.296,5.777-3.746c1.556-0.288,3.123-0.498,4.64-1.345c0.251,0.755-0.457,0.893-0.646,1.272
				c-0.396,0.792-0.495,1.532,0.2,2.164c0.77,0.7,1.672,0.684,2.382-0.013c1.768-1.735,3.832-2.743,6.299-3.002
				c0.843-0.089,1.564-0.531,1.462-1.53c-0.105-1.027-0.973-1.184-1.778-1.188c-2.051-0.011-3.867-0.422-4.858-2.476
				c-0.487-1.01-1.921-1.785-0.007-3.109c1.232-0.853,0.117-2.644-1.784-2.639c-1.722,0.004-3.441,0.347-5.813,0.614
				c4.157-2.369,7.911-3.601,12.07-2.641c2.021,0.466,3.865,0.188,5.604-0.78c1.413-0.787,2.87-1.265,4.47-1.482
				c2.416-0.329,3.775-1.809,3.97-4.226c0.261-3.243,0.169-6.383-3.005-8.444c-1.935-1.257-3.93-1.258-6.073-0.667
				c-2.13,0.586-3.827,0.123-4.559-2.276c-0.607-1.995-2.294-3.296-3.458-4.92c-1.003-1.399-2.434-0.859-3.609,0.324
				c-3.024,3.044-5.459,2.326-7.524-1.291c-1.837-3.215-5.116-4.92-8.948-5.145c-1.755-0.103-3.528,0.008-5.268-0.199
				c-2.01-0.239-2.631,0.733-2.351,2.443c0.333,2.031,0.566,3.902-0.827,5.755c-0.728,0.966,0.209,1.936,0.981,2.726
				c2.211,2.261,2.362,3.635-0.205,5.319c-2.855,1.874-3.733,4.127-3.23,7.344c0.215,1.375-0.006,3.096-1.769,3.371
				c-1.835,0.286-2.164-1.463-2.645-2.746c-0.275-0.733-0.339-1.544-0.5-2.32c-0.927-4.485-3.461-6.325-7.919-5.688
				c-2.952,0.422-5.829-0.151-8.571-1.001c-3.893-1.207-5.336-5.377-3.593-9.06c1.551-3.277,3.546-5.624,7.52-6.126
				c2.472-0.312,4.725-1.544,5.554-4.52c0.391-1.398,1.508-2.778,3.644-2.12c0.823,0.253,1.896-0.174,2.823-0.414
				c1.652-0.426,3.479-1.144,3.758-2.863c0.256-1.583-1.402-2.611-2.778-3.114c-1.828-0.668-3.431,0.192-4.676,1.571
				c-0.456,0.504-0.571,1.339-1.285,1.612c-0.864,0.331-2.093,1.339-1.935-0.838c0.052-0.723-0.586-1.429-1.09-1.195
				c-2.091,0.971-4.061-0.34-6.012-0.128c-2.197,0.238-2.86,2.691-4.231,4.094c-1.42,1.453-2.611,2.158-4.569,1.505
				c-0.728-0.243-1.656-0.424-2.335-0.185c-4.396,1.547-9.242,1.229-13.493,3.35c-2.863,1.428-5.966,1.977-9.398,1.984
				c1.793-1.533,3.509-3.168,5.391-4.582c16.633-12.485,35.223-20.54,55.71-24.011c7.966-1.35,16.041-2.424,24.143-0.889
				c3.349,0.635,6.369,2.001,8.58,4.772c1.193,1.497,3.006,1.949,5.166,2.468c-2.052,0.928-4.84-0.685-5.206,2.136
				c-0.304,2.346,2.089,1.408,3.312,1.873c-2.197,4.662-2.019,5.421,2.025,8.599c0.914,0.718,1.66,1.567,2.181,2.612
				c2.885,5.788,7.629,7.971,13.909,7.169c1.571-0.2,2.97,0.057,4.053,1.355c1.078,1.291,2.357,2.253,4.123,1.445
				c1.83-0.838,2.327-2.848,1.879-4.269c-0.802-2.537,0.788-4.751,0.299-7.181c-0.281-1.39,0.877-2.021,2.172-2.056
				c2.832-0.075,4.929-1.281,6.758-3.494c2.062-2.496,5.312-2.997,8.144-1.519c8.698,4.54,16.651,10.194,24.087,16.564
				c7.309,6.261,13.797,13.306,19.473,21.08c0.714,0.976,2.665,2.691-0.814,2.431c-0.47-0.035-0.947,0.358-0.874,0.813
				c0.351,2.202-1.562,1.602-2.552,2.136c-1.803-5.833-5.919-10.156-9.605-14.765c-0.627-0.783-0.947-2.235-2.301-1.254
				c-1.087,0.789-0.96,2.246-0.261,3.107c1.139,1.405,1.523,3.356,3.334,4.302c1.147,0.599,1.2,1.646,0.729,2.949
				c-0.714,1.974-0.496,4.186,1.715,4.886C265.441,97.5,267.612,98.337,269.854,97.608z M167.019,69.979
				c0.644,0.097,1.071,0.181,1.503,0.222c1.102,0.105,2.271,0.011,2.729-1.1c0.517-1.255-0.659-1.919-1.466-2.506
				c-0.836-0.609-1.863-0.952-2.79-1.442c-0.751-0.396-1.839-0.683-1.273-1.874c0.495-1.044,1.35-0.444,2.064-0.198
				c0.33,0.113,0.676,0.259,0.936,0.481c1.752,1.498,3.487,2.031,5.559,0.439c0.763-0.587,1.849-0.877,1.896-1.967
				c0.06-1.379-1.252-1.247-2.105-1.511c-2.51-0.776-5.059-1.431-7.551-2.258c-1.233-0.41-2.727-0.875-1.312-2.73
				c0.627-0.823,0.036-1.437-0.785-1.424c-3.597,0.053-6.575-2.869-10.313-2.103c-0.271,0.056-0.782-0.148-0.898-0.376
				c-1.776-3.471-4.177-1.333-6.333-0.668c-1.92,0.591-3.754,1.437-5.105-0.932c-0.421-0.738-1.139-0.535-1.869-0.518
				c-2.753,0.063-4.635,1.566-6.005,3.768c-1.143-0.824-0.418-2.898-2.21-2.504c-1.431,0.315-2.932,0.653-4.048,1.786
				c-0.989,1.003-1.076,2.045-0.551,3.365c0.545,1.366,1.479,1.662,2.714,1.446c2.449-0.428,4.916-0.226,7.375-0.301
				c1.23-0.038,2.516,0.078,3.613-0.571c3.406-2.015,6.547-0.914,9.665,0.712c0.78,0.407,1.554,0.828,2.351,1.201
				c3.046,1.43,3.067,1.541,0.65,3.655c-0.257,0.226-0.679,0.51-0.67,0.755c0.081,2.556-1.973,1.928-3.334,2.223
				c-0.746,0.162-1.605-0.145-2.33,0.058c-0.964,0.271-2.307,0.563-2.059,1.946c0.222,1.234,1.638,1.281,2.398,0.994
				c4.026-1.518,7.634-1.466,10.593,2.122c0.045,0.055,0.166,0.046,0.25,0.071c2.405,0.709,4.806,1.435,7.218,2.118
				c0.719,0.204,1.527,0.881,2.204,0.117C168.601,71.489,167.166,71.017,167.019,69.979z M144.709,173.686
				c0.88,0,1.586,0.049,2.282-0.012c0.932-0.081,2.164,0.028,2.197-1.303c0.027-1.146-1.121-1.146-1.95-1.359
				c-1.714-0.438-3.167-1.375-4.693-2.239c-3.449-1.953-7.111-3.394-11.209-3.12c-1.44,0.096-2.755,0.544-3.812,1.566
				c-0.465,0.451-0.771,1.028-0.304,1.63c0.409,0.527,1.025,0.359,1.412,0.017c2.116-1.866,4.304-0.986,6.37-0.075
				c2.142,0.945,5.164,0.987,6.214,3.041C142.216,173.786,143.175,174.027,144.709,173.686z M151.47,175.189
				c-1.046,0.915-2.821-0.412-2.773,1.328c0.038,1.409,1.635,0.929,2.594,1.044c0.952,0.114,1.905-0.001,2.672,0.812
				c0.655,0.693,1.435,0.597,2.087-0.066c1.105-1.124,2.574-0.951,3.937-1.146c0.615-0.088,1.511,0.634,1.76-0.434
				c0.204-0.874-0.544-1.374-1.17-1.887c-2.194-1.796-4.772-1.795-7.438-1.974C150.62,172.698,150.209,173.302,151.47,175.189z
				 M256.566,92.966c1.096-0.133,2.562,0.199,2.963-1.139c0.534-1.785-0.545-3.398-1.34-4.891c-0.562-1.054-1.84-1.308-3.034-0.958
				c-1.483,0.435-2.626,1.098-1.659,2.984c0.31,0.603,0.406,1.334,0.507,2.021C254.223,92.496,255.117,93.071,256.566,92.966z"/>
			<path fill-rule="evenodd" clip-rule="evenodd" fill="#88C0D0" d="M41.676,166.94c0.505-20.607,5.549-40.029,14.938-58.333
				c0.774-1.51,1.354-3.91,3.142-3.861c1.584,0.042,1.28,2.585,2.055,3.915c2.728,4.681,3.188,9.452,1.179,14.659
				c-1.586,4.113-1.247,8.486,0.109,12.716c0.537,1.674,1.145,3.327,1.251,5.112c0.096,1.59,1.073,2.546,2.462,3.142
				c1.907,0.818,2.847,2.22,2.818,4.328c-0.021,1.549,0.572,2.939,1.546,4.126c0.922,1.124,1.595,2.312,1.563,3.815
				c-0.005,0.259-0.011,0.639,0.144,0.761c2.959,2.337,3.189,6.388,5.68,9.011c0.468,0.492,0.88,1.344,1.686,0.848
				c0.901-0.556,0.381-1.332,0.065-2.087c-1.687-4.029-3.021-8.201-5.903-11.669c-0.756-0.909-1.68-3.114-0.355-3.707
				c1.256-0.562,1.116,1.738,1.733,2.688c2.319,3.573,4.081,7.522,7.181,10.566c2.211,2.171,3.55,4.79,3.96,7.865
				c0.372,2.798,1.942,4.643,4.487,5.721c3.397,1.439,6.895,2.653,9.829,5.031c1.097,0.888,2.485,0.705,3.808,0.354
				c1.766-0.469,3.363-0.284,4.387,1.441c1.324,2.232,3.381,3.229,5.828,3.663c3.819,0.679,7.14,1.922,7.97,6.419
				c0.25,1.357,1.521,2.067,2.746,2.673c2.991,1.479,5.976,2.973,8.92,4.539c1.309,0.697,2.025,0.272,2.359-0.996
				c0.296-1.126,0.895-1.688,2.074-1.482c0.646,0.112,1.245,0.431,1.304,1.123c0.093,1.116-0.912,1.408-1.649,1.821
				c-5.183,2.897-7.43,7.441-7.05,13.206c0.208,3.146-1.345,5.291-3.437,7.03c-1.41,1.173-1.536,2.604-2.075,4.058
				c-0.583,1.571-1.276,2.862,0.492,4.16c0.685,0.503-0.138,1.03-0.539,1.47c-1.6,1.748-1.438,4.632,0.63,5.805
				c2.312,1.312,3.627,3.285,4.652,5.545c2.926,6.446,7.605,11.141,14.004,14.113c2.517,1.169,3.705,3.024,3.699,5.819
				c-0.008,3.96-0.445,7.746-1.443,11.667c-1.006,3.95-1.149,8.188-2.103,12.266c-0.384,1.646,0.679,3.588,0.849,5.417
				c0.227,2.432-0.556,3.027-2.885,2.547c-20.875-4.305-39.386-13.626-55.681-27.152c-13.82-11.473-24.712-25.403-32.755-41.572
				c-8.289-16.666-12.812-34.195-13.206-52.803C42.104,170.789,41.837,168.866,41.676,166.94z"/>
			<path fill-rule="evenodd" clip-rule="evenodd" fill="#88C0D0" d="M276.834,114.4c1.155,0.986,2.278,1.193,3.535,0.158
				c0.814-0.671,1.627-0.154,1.799,0.736c0.503,2.602,2.363,4.222,3.995,6.055c0.803,0.901,1.438,2.001,1.945,3.105
				c1.118,2.436,1.162,2.472,3.237-0.083c1.579,4.124,2.903,8.055,3.558,12.144c0.28,1.752-1.341,2.072-2.523,1.305
				c-2.548-1.652-5.207-3.178-6.534-6.252c-2.477-5.731-6.855-7.296-12.428-4.655c-0.717,0.339-1.438,0.893-2.221,0.643
				c-1.369-0.436-3.578-0.445-3.715-1.861c-0.135-1.382,1.956-0.815,3.059-1.12c1.268-0.351,2.405-0.923,2.521-2.34
				c0.183-2.253,0.495-4.307,2.702-5.627C276.311,116.279,276.441,115.256,276.834,114.4z"/>
			<path fill-rule="evenodd" clip-rule="evenodd" fill="#5E81AC" d="M183.734,33.181c6.905,1.315,13.927,1.963,20.746,3.79
				c24.002,6.427,44.806,18.312,62.318,36.005c20.599,20.811,33.372,45.635,37.745,74.529c3.188,21.059,1.794,41.919-4.826,62.34
				c-6.635,20.467-17.474,38.297-32.555,53.621c-21.838,22.188-48.241,35.433-79.004,39.438
				c-17.184,2.237-34.368,1.333-51.333-3.047c-21.589-5.572-40.62-15.794-57.06-30.704c-19.556-17.736-33.161-39.271-40.052-64.896
				c-6.699-24.914-6.416-49.782,0.734-74.521c5.818-20.129,16.102-37.832,30.283-53.201c10.949-11.866,23.565-21.726,37.99-29.02
				c14.562-7.364,29.995-12.117,46.281-13.882c0.779-0.084,1.546-0.298,2.317-0.452C166.126,33.181,174.93,33.181,183.734,33.181z
				 M269.829,97.641c0.991-0.534,2.903,0.066,2.553-2.136c-0.073-0.455,0.404-0.848,0.874-0.813c3.479,0.26,1.528-1.455,0.814-2.431
				c-5.676-7.774-12.164-14.819-19.473-21.08c-7.436-6.371-15.389-12.025-24.087-16.564c-2.832-1.478-6.081-0.978-8.144,1.519
				c-1.829,2.213-3.926,3.419-6.758,3.494c-1.295,0.035-2.453,0.666-2.172,2.056c0.489,2.43-1.101,4.644-0.299,7.181
				c0.448,1.421-0.049,3.431-1.879,4.269c-1.766,0.808-3.045-0.154-4.123-1.445c-1.083-1.298-2.481-1.555-4.053-1.355
				c-6.28,0.802-11.024-1.381-13.909-7.169c-0.521-1.045-1.267-1.894-2.181-2.612c-4.044-3.178-4.223-3.937-2.025-8.599
				c-1.224-0.464-3.616,0.474-3.312-1.873c0.366-2.821,3.154-1.208,5.206-2.136c-2.16-0.519-3.973-0.972-5.166-2.468
				c-2.211-2.771-5.231-4.138-8.58-4.772c-8.102-1.535-16.177-0.461-24.143,0.889c-20.487,3.471-39.077,11.526-55.71,24.011
				c-1.882,1.413-3.598,3.049-5.391,4.582c3.433-0.007,6.535-0.556,9.398-1.984c4.251-2.121,9.098-1.803,13.493-3.35
				c0.679-0.239,1.607-0.059,2.335,0.185c1.958,0.653,3.149-0.052,4.569-1.505c1.371-1.403,2.034-3.856,4.231-4.094
				c1.951-0.212,3.921,1.1,6.012,0.128c0.504-0.234,1.142,0.472,1.09,1.195c-0.158,2.178,1.07,1.169,1.935,0.838
				c0.714-0.273,0.829-1.108,1.285-1.612c1.245-1.378,2.848-2.239,4.676-1.571c1.376,0.503,3.034,1.532,2.778,3.114
				c-0.278,1.719-2.105,2.437-3.758,2.863c-0.928,0.24-2,0.667-2.823,0.414c-2.136-0.658-3.253,0.722-3.644,2.12
				c-0.829,2.975-3.082,4.207-5.554,4.52c-3.974,0.503-5.969,2.849-7.52,6.126c-1.743,3.683-0.3,7.854,3.593,9.06
				c2.742,0.85,5.619,1.423,8.571,1.001c4.458-0.637,6.992,1.202,7.919,5.688c0.161,0.776,0.225,1.587,0.5,2.32
				c0.48,1.283,0.81,3.032,2.645,2.746c1.763-0.275,1.983-1.997,1.769-3.371c-0.503-3.216,0.375-5.47,3.23-7.344
				c2.567-1.684,2.416-3.058,0.205-5.319c-0.772-0.79-1.709-1.76-0.981-2.726c1.394-1.853,1.16-3.724,0.827-5.755
				c-0.28-1.71,0.341-2.683,2.351-2.443c1.739,0.207,3.513,0.096,5.268,0.199c3.832,0.225,7.111,1.93,8.948,5.145
				c2.065,3.616,4.5,4.334,7.524,1.291c1.176-1.184,2.606-1.724,3.609-0.324c1.164,1.624,2.851,2.926,3.458,4.92
				c0.731,2.399,2.429,2.862,4.559,2.276c2.144-0.591,4.139-0.59,6.073,0.667c3.174,2.061,3.266,5.202,3.005,8.444
				c-0.194,2.417-1.554,3.897-3.97,4.226c-1.6,0.217-3.057,0.695-4.47,1.482c-1.738,0.968-3.582,1.247-5.604,0.78
				c-4.159-0.96-7.913,0.271-12.07,2.641c2.372-0.267,4.092-0.61,5.813-0.614c1.901-0.005,3.017,1.787,1.784,2.639
				c-1.914,1.325-0.48,2.1,0.007,3.109c0.991,2.054,2.808,2.465,4.858,2.476c0.806,0.005,1.673,0.161,1.778,1.188
				c0.103,0.999-0.619,1.441-1.462,1.53c-2.467,0.26-4.531,1.268-6.299,3.002c-0.71,0.697-1.612,0.713-2.382,0.013
				c-0.695-0.632-0.597-1.371-0.2-2.164c0.189-0.379,0.897-0.518,0.646-1.272c-1.517,0.848-3.084,1.057-4.64,1.345
				c-2.428,0.45-4.539,1.474-5.777,3.746c-2.141,3.929-6.38,5.911-8.822,9.632c-0.853,1.301-2.038,2.338-2.249,3.986
				c-0.663,5.169-3.506,8.926-7.709,11.752c-3.679,2.474-4.362,4.251-2.979,8.438c0.721,2.179,1.396,4.367,1.513,6.673
				c0.053,1.039,0.186,2.24-1.085,2.709c-1.227,0.453-1.963-0.476-2.675-1.247c-1.55-1.678-2.274-3.739-2.61-5.954
				c-0.228-1.499-0.779-3.02-2.455-2.925c-1.854,0.104-3.408-0.339-5.042-1.059c-1.138-0.501-2.494-0.44-3.578,0.254
				c-2.715,1.737-5.71,2.062-8.832,2.244c-3.938,0.229-6.805,2.177-8.155,6.042c-0.29,0.83-0.503,1.721-0.961,2.453
				c-2.545,4.08-1.211,7.763,1.106,11.326c2.354,3.62,5.768,3.634,9.384,3.099c1.146-0.17,1.687-1.13,2.023-2.211
				c1.076-3.453,3.199-4.776,6.68-4.208c1.484,0.243,2.097,0.979,1.138,2.355c-0.707,1.014-1.498,1.971-1.835,3.183
				c-1.578,5.665-1.23,7.293,4.843,7.111c3.294-0.1,5.412,2.42,4.958,5.688c-0.245,1.757-0.461,3.49,0.057,5.231
				c0.971,3.264,3.169,4.455,6.393,3.456c3.854-1.193,6.676,0.646,7.091,4.652c0.137,1.317,0.007,2.699,1.033,4.023
				c1.419-3.983,3.315-4.826,6.128-3.536c2.857,1.312,5.982,1.949,9.162,1.961c2.759,0.011,5.199,0.676,6.92,2.977
				c0.452,0.604,0.908,1.088,1.656,1.16c2.106,0.201,3.488,1.429,4.714,3.041c1.176,1.549,2.797,2.28,4.812,2.302
				c6.984,0.073,10.462,2.486,12.272,9.16c0.522,1.927,1.472,2.088,2.848,2.235c3.458,0.372,6.686,1.344,9.709,3.136
				c4.251,2.521,9.312,2.895,13.743,5.21c3.244,1.695,3.991,1.665,3.606,5.364c-0.262,2.515-1.408,4.489-3.499,5.935
				c-1.311,0.905-2.9,1.866-3.104,3.461c-0.76,5.954-3.597,10.928-6.714,15.875c-1.236,1.961-2.579,3.303-4.895,3.47
				c-2.402,0.173-4.614,1.096-6.912,1.672c-1.982,0.497-3.211,1.743-3.42,3.862c-0.089,0.894-0.431,1.653-1.037,2.364
				c-4.656,5.46-11.278,8.42-16.573,13.064c-0.256,0.225-0.625,0.483-0.928,0.468c-3.571-0.182-6.477,1.109-9.107,3.521
				c-0.87,0.797-2.511,0.676-3.515,1.653c-0.691,0.674-1.598,1.251-1.203,2.408c0.362,1.061,1.36,0.974,2.226,1.021
				c5.089,0.282,10.153,0.436,15.277,0.189c16.219-0.778,31.729-4.397,46.436-11.146c24.251-11.129,43.45-28.068,57.349-50.923
				c0.68-1.118,0.741-2.307,0.82-3.543c0.323-5.049,1.048-10.12,3.588-14.496c3.289-5.666,2.961-11.236,0.828-16.992
				c-0.832-2.247-1.071-4.425-0.215-6.686c0.557-1.471,0.885-3.062-0.499-4.14c-1.505-1.172-3.271-2.448-5.303-1.604
				c-4.427,1.838-9.181,1.463-13.748,2.3c-1.189,0.218-2.175-0.138-3.093-1.04c-4.193-4.126-8.511-8.125-11.771-13.099
				c-0.942-1.438-1.905-6.898-1.046-8.165c1.733-2.555,1.688-4.96,0.107-7.617c-1.909-3.21-1.621-7.392,0.856-9.845
				c3.612-3.575,5.406-8.465,9.036-11.998c0.335-0.326,0.535-0.952,0.532-1.436c-0.021-2.839,1.191-5.003,3.205-6.958
				c2.265-2.199,1.566-4.61-1.483-5.413c-1.513-0.398-1.767-1.367-2.35-2.668c-1.545-3.451,0.131-7.044-0.977-10.478
				c-0.517-1.601,0.55-2.532,2.282-2.134c1.499,0.344,3.094,0.2,4.467,1.284c0.769,0.607,2.057,0.864,2.928-0.071
				c0.842-0.905,0.521-2.033,0.006-2.965c-0.978-1.767-1.977-3.562-4.004-4.387c-0.758-0.308-1.585-0.65-1.382-1.642
				c0.243-1.188,1.226-1.068,2.121-0.907c2.142,0.386,3.612-0.362,4.303-2.479L269.829,97.641z M41.676,166.94
				c0.161,1.926,0.428,3.849,0.469,5.778c0.394,18.607,4.917,36.137,13.206,52.803c8.043,16.169,18.935,30.1,32.755,41.572
				c16.295,13.526,34.806,22.848,55.681,27.152c2.329,0.48,3.111-0.115,2.885-2.547c-0.17-1.829-1.232-3.771-0.849-5.417
				c0.953-4.077,1.097-8.315,2.103-12.266c0.998-3.921,1.436-7.707,1.443-11.667c0.006-2.795-1.183-4.65-3.699-5.819
				c-6.398-2.973-11.078-7.667-14.004-14.113c-1.025-2.26-2.34-4.232-4.652-5.545c-2.067-1.173-2.229-4.057-0.63-5.805
				c0.401-0.439,1.224-0.967,0.539-1.47c-1.769-1.298-1.075-2.589-0.492-4.16c0.539-1.454,0.665-2.885,2.075-4.058
				c2.092-1.739,3.645-3.885,3.437-7.03c-0.38-5.765,1.867-10.309,7.05-13.206c0.737-0.413,1.742-0.705,1.649-1.821
				c-0.059-0.692-0.658-1.011-1.304-1.123c-1.18-0.206-1.778,0.356-2.074,1.482c-0.334,1.269-1.051,1.693-2.359,0.996
				c-2.944-1.566-5.929-3.061-8.92-4.539c-1.226-0.605-2.496-1.315-2.746-2.673c-0.83-4.497-4.15-5.74-7.97-6.419
				c-2.447-0.434-4.504-1.431-5.828-3.663c-1.023-1.726-2.621-1.91-4.387-1.441c-1.322,0.352-2.711,0.534-3.808-0.354
				c-2.935-2.378-6.432-3.592-9.829-5.031c-2.545-1.078-4.115-2.923-4.487-5.721c-0.41-3.075-1.749-5.694-3.96-7.865
				c-3.1-3.044-4.861-6.993-7.181-10.566c-0.617-0.951-0.478-3.251-1.733-2.688c-1.324,0.593-0.4,2.798,0.355,3.707
				c2.883,3.468,4.217,7.64,5.903,11.669c0.315,0.755,0.836,1.532-0.065,2.087c-0.806,0.496-1.218-0.355-1.686-0.848
				c-2.49-2.623-2.721-6.674-5.68-9.011c-0.154-0.122-0.148-0.502-0.144-0.761c0.031-1.503-0.642-2.692-1.563-3.815
				c-0.974-1.188-1.567-2.578-1.546-4.126c0.028-2.108-0.911-3.51-2.818-4.328c-1.389-0.596-2.366-1.552-2.462-3.142
				c-0.106-1.786-0.714-3.438-1.251-5.112c-1.356-4.229-1.695-8.603-0.109-12.716c2.01-5.208,1.549-9.979-1.179-14.659
				c-0.774-1.33-0.471-3.873-2.055-3.915c-1.787-0.048-2.367,2.352-3.142,3.861C47.225,126.911,42.181,146.333,41.676,166.94z
				 M276.834,114.4c-0.393,0.856-0.523,1.879-1.07,2.207c-2.207,1.32-2.52,3.374-2.702,5.627c-0.115,1.417-1.253,1.99-2.521,2.34
				c-1.103,0.305-3.193-0.262-3.059,1.12c0.137,1.417,2.346,1.426,3.715,1.861c0.783,0.25,1.504-0.304,2.221-0.643
				c5.572-2.641,9.951-1.076,12.428,4.655c1.327,3.074,3.986,4.6,6.534,6.252c1.183,0.768,2.804,0.447,2.523-1.305
				c-0.654-4.089-1.979-8.02-3.558-12.144c-2.075,2.555-2.119,2.519-3.237,0.083c-0.507-1.104-1.143-2.204-1.945-3.105
				c-1.632-1.833-3.492-3.454-3.995-6.055c-0.172-0.891-0.984-1.408-1.799-0.736C279.112,115.593,277.989,115.386,276.834,114.4z
				 M168.521,70.201c1.102,0.105,2.271,0.011,2.729-1.1c0.517-1.255-0.659-1.919-1.466-2.506c-0.836-0.609-1.863-0.952-2.79-1.442
				c-0.751-0.396-1.839-0.683-1.273-1.874c0.495-1.044,1.35-0.444,2.064-0.198c0.33,0.113,0.676,0.259,0.936,0.481
				c1.752,1.498,3.487,2.031,5.559,0.439c0.763-0.587,1.849-0.877,1.896-1.967c0.06-1.379-1.252-1.247-2.105-1.511
				c-2.51-0.776-5.059-1.431-7.551-2.258c-1.233-0.41-2.727-0.875-1.312-2.73c0.627-0.823,0.036-1.437-0.785-1.424
				c-3.597,0.053-6.575-2.869-10.313-2.103c-0.271,0.056-0.782-0.148-0.898-0.376c-1.776-3.471-4.177-1.333-6.333-0.668
				c-1.92,0.591-3.754,1.437-5.105-0.932c-0.421-0.738-1.139-0.535-1.869-0.518c-2.753,0.063-4.635,1.566-6.005,3.768
				c-1.143-0.824-0.418-2.898-2.21-2.504c-1.431,0.315-2.932,0.653-4.048,1.786c-0.989,1.003-1.076,2.045-0.551,3.365
				c0.545,1.366,1.479,1.662,2.714,1.446c2.449-0.428,4.916-0.226,7.375-0.301c1.23-0.038,2.516,0.078,3.613-0.571
				c3.406-2.015,6.547-0.914,9.665,0.712c0.78,0.407,1.554,0.828,2.351,1.201c3.046,1.43,3.067,1.541,0.65,3.655
				c-0.257,0.226-0.679,0.51-0.67,0.755c0.081,2.556-1.973,1.928-3.334,2.223c-0.746,0.162-1.605-0.145-2.33,0.058
				c-0.964,0.271-2.307,0.563-2.059,1.946c0.222,1.234,1.638,1.281,2.398,0.994c4.026-1.518,7.634-1.466,10.593,2.122
				c0.045,0.055,0.166,0.046,0.25,0.071c2.405,0.709,4.806,1.435,7.218,2.118c0.719,0.204,1.527,0.881,2.204,0.117
				c0.873-0.985-0.562-1.457-0.709-2.495C167.662,70.076,168.09,70.16,168.521,70.201z M269.83,97.641
				c-1.803-5.833-5.919-10.156-9.605-14.765c-0.627-0.783-0.947-2.235-2.301-1.254c-1.087,0.789-0.96,2.246-0.261,3.107
				c1.139,1.405,1.523,3.356,3.334,4.302c1.147,0.599,1.2,1.646,0.729,2.949c-0.714,1.974-0.496,4.186,1.715,4.886
				c2.001,0.633,4.172,1.47,6.414,0.742L269.83,97.641z M146.991,173.674c0.932-0.081,2.164,0.028,2.197-1.303
				c0.027-1.146-1.121-1.146-1.95-1.359c-1.714-0.438-3.167-1.375-4.693-2.239c-3.449-1.953-7.111-3.394-11.209-3.12
				c-1.44,0.096-2.755,0.544-3.812,1.566c-0.465,0.451-0.771,1.028-0.304,1.63c0.409,0.527,1.025,0.359,1.412,0.017
				c2.116-1.866,4.304-0.986,6.37-0.075c2.142,0.945,5.164,0.987,6.214,3.041c0.999,1.954,1.958,2.195,3.492,1.854
				C145.589,173.686,146.295,173.734,146.991,173.674z M148.696,176.518c0.038,1.409,1.635,0.929,2.594,1.044
				c0.952,0.114,1.905-0.001,2.672,0.812c0.655,0.693,1.435,0.597,2.087-0.066c1.105-1.124,2.574-0.951,3.937-1.146
				c0.615-0.088,1.511,0.634,1.76-0.434c0.204-0.874-0.544-1.374-1.17-1.887c-2.194-1.796-4.772-1.795-7.438-1.974
				c-2.518-0.168-2.929,0.436-1.668,2.323C150.424,176.104,148.648,174.777,148.696,176.518z M259.529,91.827
				c0.534-1.785-0.545-3.398-1.34-4.891c-0.562-1.054-1.84-1.308-3.034-0.958c-1.483,0.435-2.626,1.098-1.659,2.984
				c0.31,0.603,0.406,1.334,0.507,2.021c0.22,1.513,1.114,2.088,2.563,1.98C257.662,92.833,259.129,93.165,259.529,91.827z"/>
		</g>
	</g>
</g>
<g id="Artwork">
	<g>
		<polygon fill="#FFFFFF" points="249,305 229,305 229,34.938 249,34.874 		"/>
		<polygon fill="#FFFFFF" points="111,305 91,305 91,35.379 111,35.315 		"/>
		<g>
			<g>
				<path fill="none" stroke="#FFFFFF" stroke-miterlimit="10" d="M164.626,276.828c-4.114-0.184-8.078-0.561-11.781-1.119
					l0.746-4.943c3.53,0.532,7.318,0.892,11.26,1.068L164.626,276.828z"/>
				<path fill="none" stroke="#FFFFFF" stroke-miterlimit="10" d="M176.424,276.826l-0.227-4.994
					c3.948-0.179,7.736-0.54,11.258-1.073l0.748,4.943C184.51,276.262,180.546,276.64,176.424,276.826z"/>
				<path fill="none" stroke="#FFFFFF" stroke-miterlimit="10" d="M141.144,272.989c-6.785-2.333-10.253-5.398-10.31-9.111l5-0.076
					c0.011,0.722,1.475,2.581,6.935,4.459L141.144,272.989z"/>
				<path fill="none" stroke="#FFFFFF" stroke-miterlimit="10" d="M199.904,272.972l-1.631-4.727
					c5.058-1.745,6.894-3.619,6.894-4.453l4.997-0.172l0.002,0.086C210.167,267.533,206.714,270.621,199.904,272.972z"/>
				<path fill="none" stroke="#FFFFFF" stroke-miterlimit="10" d="M142.685,259.353l-1.637-4.725c3.281-1.137,7.218-2.06,11.7-2.74
					l0.752,4.943C149.317,257.467,145.679,258.314,142.685,259.353z"/>
				<path fill="none" stroke="#FFFFFF" stroke-miterlimit="10" d="M198.19,259.31c-3.006-1.029-6.648-1.869-10.827-2.499
					l0.744-4.943c4.476,0.673,8.413,1.586,11.702,2.712L198.19,259.31z"/>
			</g>
		</g>
		<polygon fill="#FFFFFF" points="170.5,263.614 118.839,163.093 118.887,119.546 170.5,220 170.84,220 222.453,119.546 
			222.501,163.027 170.84,263.581 		"/>
		<g>
			<g>
				<path fill="none" stroke="#FFFFFF" stroke-width="5" stroke-miterlimit="10" d="M121.667,115.126
					c0-2.041,0.103-4.04,0.304-5.991"/>
				<path fill="none" stroke="#FFFFFF" stroke-width="5" stroke-miterlimit="10" stroke-dasharray="12.9849,12.9849" d="
					M124.856,96.507c6.764-18.383,23.738-30.214,45.644-30.214c24.283,0,42.507,14.54,47.479,36.425"/>
				<path fill="none" stroke="#FFFFFF" stroke-width="5" stroke-miterlimit="10" d="M219.029,109.135
					c0.201,1.951,0.304,3.95,0.304,5.991"/>
			</g>
		</g>
		<circle fill="#FFFFFF" cx="170.5" cy="120.126" r="18.25"/>
	</g>
</g>
</svg>
